<?xml version="1.0" encoding="UTF-8" standalone="no"?>
<!-- Created with Inkscape (http://www.inkscape.org/) -->

<svg
   xmlns:dc="http://purl.org/dc/elements/1.1/"
   xmlns:cc="http://creativecommons.org/ns#"
   xmlns:rdf="http://www.w3.org/1999/02/22-rdf-syntax-ns#"
   xmlns:svg="http://www.w3.org/2000/svg"
   xmlns="http://www.w3.org/2000/svg"
   xmlns:sodipodi="http://sodipodi.sourceforge.net/DTD/sodipodi-0.dtd"
   xmlns:inkscape="http://www.inkscape.org/namespaces/inkscape"
   width="928.50842"
   height="919.59058"
   id="svg2"
   version="1.1"
   inkscape:version="0.48.4 r9939"
   sodipodi:docname="ChengTan.svg"
   inkscape:export-filename="/home/noinil/Workspace/inkscape/Sticker/ChengTan.png"
   inkscape:export-xdpi="90"
   inkscape:export-ydpi="90">
  <sodipodi:namedview
     id="base"
     pagecolor="#ffffff"
     bordercolor="#666666"
     borderopacity="1.0"
     inkscape:pageopacity="0.0"
     inkscape:pageshadow="2"
     inkscape:zoom="0.49497475"
     inkscape:cx="787.89604"
     inkscape:cy="478.0808"
     inkscape:document-units="px"
     inkscape:current-layer="layer1"
     showgrid="false"
     fit-margin-top="0"
     fit-margin-left="0"
     fit-margin-right="0"
     fit-margin-bottom="0"
     inkscape:window-width="1920"
     inkscape:window-height="1060"
     inkscape:window-x="-2"
     inkscape:window-y="-3"
     inkscape:window-maximized="1" />
  <defs
     id="defs4">
    <inkscape:perspective
       sodipodi:type="inkscape:persp3d"
       inkscape:vp_x="534.28576 : 1145.9774 : 1"
       inkscape:vp_y="0 : 984.60054 : 0"
       inkscape:vp_z="4164.2227 : 914.5489 : 1"
       inkscape:persp3d-origin="1039.9685 : 519.35829 : 1"
       id="perspective5783" />
    <inkscape:perspective
       sodipodi:type="inkscape:persp3d"
       inkscape:vp_x="862.85719 : 968.83457 : 1"
       inkscape:vp_y="0 : 984.60054 : 0"
       inkscape:vp_z="4344.2228 : 928.83463 : 1"
       inkscape:persp3d-origin="1368.54 : 342.21543 : 1"
       id="perspective5767" />
    <inkscape:perspective
       sodipodi:type="inkscape:persp3d"
       inkscape:vp_x="745.71433 : 1057.406 : 1"
       inkscape:vp_y="0 : 984.60054 : 0"
       inkscape:vp_z="4229.937 : 925.97749 : 1"
       inkscape:persp3d-origin="1251.3971 : 430.78686 : 1"
       id="perspective5709" />
    <filter
       inkscape:collect="always"
       id="filter3892"
       x="-0.16792846"
       width="1.3358569"
       y="-0.20821801"
       height="1.416436"
       color-interpolation-filters="sRGB">
      <feGaussianBlur
         inkscape:collect="always"
         stdDeviation="14.996034"
         id="feGaussianBlur3894" />
    </filter>
    <clipPath
       clipPathUnits="userSpaceOnUse"
       id="clipPath3898">
      <path
         id="path3900"
         d="m 451.57656,198.66323 c 82.18767,16.33645 144.13772,88.85452 144.13772,175.84181 l 0,0 c 0,99.01676 -80.26895,179.28571 -179.28571,179.28571 -99.01676,0 -179.28571,-80.26895 -179.28571,-179.28571 0,-2.15433 0.038,-4.29978 0.11336,-6.43572"
         style="color:#000000;fill:#25d0b8;fill-opacity:1;fill-rule:evenodd;stroke:none;stroke-width:3;marker:none;visibility:visible;display:inline;overflow:visible;enable-background:accumulate"
         inkscape:connector-curvature="0" />
    </clipPath>
    <clipPath
       clipPathUnits="userSpaceOnUse"
       id="clipPath3902">
      <path
         id="path3904"
         d="m 451.57656,198.66323 c 82.18767,16.33645 144.13772,88.85452 144.13772,175.84181 l 0,0 c 0,99.01676 -80.26895,179.28571 -179.28571,179.28571 -99.01676,0 -179.28571,-80.26895 -179.28571,-179.28571 0,-2.15433 0.038,-4.29978 0.11336,-6.43572"
         style="color:#000000;fill:#25d0b8;fill-opacity:1;fill-rule:evenodd;stroke:none;stroke-width:3;marker:none;visibility:visible;display:inline;overflow:visible;enable-background:accumulate"
         inkscape:connector-curvature="0" />
    </clipPath>
    <clipPath
       clipPathUnits="userSpaceOnUse"
       id="clipPath3906">
      <path
         id="path3908"
         d="m 451.57656,198.66323 c 82.18767,16.33645 144.13772,88.85452 144.13772,175.84181 l 0,0 c 0,99.01676 -80.26895,179.28571 -179.28571,179.28571 -99.01676,0 -179.28571,-80.26895 -179.28571,-179.28571 0,-2.15433 0.038,-4.29978 0.11336,-6.43572"
         style="color:#000000;fill:#25d0b8;fill-opacity:1;fill-rule:evenodd;stroke:none;stroke-width:3;marker:none;visibility:visible;display:inline;overflow:visible;enable-background:accumulate"
         inkscape:connector-curvature="0" />
    </clipPath>
    <clipPath
       clipPathUnits="userSpaceOnUse"
       id="clipPath3910">
      <path
         id="path3912"
         d="m 451.57656,198.66323 c 82.18767,16.33645 144.13772,88.85452 144.13772,175.84181 l 0,0 c 0,99.01676 -80.26895,179.28571 -179.28571,179.28571 -99.01676,0 -179.28571,-80.26895 -179.28571,-179.28571 0,-2.15433 0.038,-4.29978 0.11336,-6.43572"
         style="color:#000000;fill:#25d0b8;fill-opacity:1;fill-rule:evenodd;stroke:none;stroke-width:3;marker:none;visibility:visible;display:inline;overflow:visible;enable-background:accumulate"
         inkscape:connector-curvature="0" />
    </clipPath>
    <filter
       inkscape:collect="always"
       id="filter4144"
       color-interpolation-filters="sRGB">
      <feGaussianBlur
         inkscape:collect="always"
         stdDeviation="8.6765"
         id="feGaussianBlur4146" />
    </filter>
    <filter
       inkscape:collect="always"
       id="filter4181"
       x="-0.039169833"
       width="1.0783397"
       y="-0.12814792"
       height="1.2562958"
       color-interpolation-filters="sRGB">
      <feGaussianBlur
         inkscape:collect="always"
         stdDeviation="8.6508914"
         id="feGaussianBlur4183" />
    </filter>
    <filter
       inkscape:collect="always"
       id="filter4238"
       x="-0.039441887"
       width="1.0788838"
       y="-0.12531994"
       height="1.2506399"
       color-interpolation-filters="sRGB">
      <feGaussianBlur
         inkscape:collect="always"
         stdDeviation="10.392111"
         id="feGaussianBlur4240" />
    </filter>
    <filter
       inkscape:collect="always"
       id="filter5572"
       x="-0.041491415"
       width="1.0829828"
       y="-0.10831932"
       height="1.2166386"
       color-interpolation-filters="sRGB">
      <feGaussianBlur
         inkscape:collect="always"
         stdDeviation="11.609829"
         id="feGaussianBlur5574" />
    </filter>
  </defs>
  <metadata
     id="metadata7">
    <rdf:RDF>
      <cc:Work
         rdf:about="">
        <dc:format>image/svg+xml</dc:format>
        <dc:type
           rdf:resource="http://purl.org/dc/dcmitype/StillImage" />
        <dc:title />
      </cc:Work>
    </rdf:RDF>
  </metadata>
  <g
     inkscape:label="Layer 1"
     inkscape:groupmode="layer"
     id="layer1"
     transform="translate(-237.14288,-198.66323)">
    <path
       inkscape:connector-curvature="0"
       style="color:#000000;fill:#25d0b8;fill-opacity:1;fill-rule:evenodd;stroke:none;stroke-width:3;marker:none;visibility:visible;display:inline;overflow:visible;enable-background:accumulate"
       d="m 451.57656,198.66323 c 82.18767,16.33645 144.13772,88.85452 144.13772,175.84181 l 0,0 c 0,99.01676 -80.26895,179.28571 -179.28571,179.28571 -99.01676,0 -179.28571,-80.26895 -179.28571,-179.28571 0,-2.15433 0.038,-4.29978 0.11336,-6.43572"
       id="path3764"
       clip-path="url(#clipPath3910)"
       transform="matrix(2.5894658,0,0,2.5894658,-376.93045,-315.76841)" />
    <path
       sodipodi:nodetypes="ccccczccccccczccccccccccccc"
       inkscape:connector-curvature="0"
       id="path3099"
       d="m 1044.2368,866.57516 c -13.7902,-36.19491 53.9593,-56.1786 62.6247,-18.68838 8.3029,33.45544 -53.722,56.23152 -62.6247,18.68838 z m -68.31836,43.58437 c -39.7,21.49767 -54.20255,33.04229 -106.17757,30.2403 17.84064,-49.8194 19.16692,-43.38253 2.92129,-91.87784 -16.24562,-48.49529 -23.27445,-97.16321 -43.33139,-137.96337 -24.41037,-23.80214 -80.26772,-6.07448 -87.09947,25.52039 -25.91289,38.80204 -48.26267,-43.31978 -8.04097,-43.39966 33.8343,-12.56325 71.21193,-11.55571 104.14564,-27.38091 34.76643,-10.5996 68.68051,-24.03812 101.15948,-40.36333 31.90157,-13.56255 53.08915,60.83259 11.80963,38.82512 -26.05065,-16.99956 -79.4656,6.88651 -70.41935,44.05527 4.91414,41.91118 20.81428,84.25277 35.09949,120.88726 14.28522,36.6345 22.06552,41.97267 59.93322,81.45677 z M 723.51208,970.5354 c -13.79033,-36.19491 53.95937,-56.17852 62.62458,-18.68831 8.303,33.45541 -53.72202,56.23151 -62.62458,18.68831 z m -51.71442,-13.89118 c -27.82207,97.73788 -168.31865,136.47628 -242.39935,66.99268 -65.5231,-59.65866 -60.75525,-182.39729 16.79354,-229.89492 45.07365,-29.7664 104.40734,-44.75977 156.54105,-26.52495 31.33733,17.8518 -17.94023,65.63449 -29.3371,27.33185 -43.89492,-32.70332 -115.73311,-4.80351 -125.93392,49.11249 -18.48828,65.74676 13.78179,143.68318 74.61971,175.28343 36.87066,17.6411 87.57515,7.828 107.78102,-29.98741 9.87295,-14.71667 22.17735,-32.22923 41.93505,-32.31317 z"
       style="font-size:138.78117371px;font-style:normal;font-variant:normal;font-weight:bold;font-stretch:normal;line-height:125%;letter-spacing:0px;word-spacing:0px;opacity:0.1;fill:#bb5333;fill-opacity:1;stroke:none;font-family:Linux Libertine;-inkscape-font-specification:Linux Libertine Bold" />
    <g
       id="g4137"
       transform="matrix(1.1257134,0,0,1.1257134,-61.370844,-137.64265)">
      <text
         transform="matrix(0.96854707,0.24883039,-0.24883039,0.96854707,-118.57143,188.57143)"
         sodipodi:linespacing="125%"
         id="text3034-7"
         y="437.48703"
         x="575.09375"
         style="font-size:138.78117371px;font-style:normal;font-variant:normal;font-weight:normal;font-stretch:normal;line-height:125%;letter-spacing:0px;word-spacing:0px;opacity:0.6;fill:#000000;fill-opacity:0.9842932;stroke:none;filter:url(#filter5572);font-family:Arial;-inkscape-font-specification:Sans"
         xml:space="preserve"><tspan
           style="font-style:normal;font-variant:normal;font-weight:bold;font-stretch:normal;fill:#000000;fill-opacity:0.9842932;font-family:Linux Libertine;-inkscape-font-specification:Linux Libertine Bold"
           y="437.48703"
           x="575.09375"
           id="tspan3036-3"
           sodipodi:role="line">Cheng Tan</tspan></text>
      <text
         transform="matrix(0.96854707,0.24883039,-0.24883039,0.96854707,0,0)"
         sodipodi:linespacing="125%"
         id="text3034"
         y="646.1673"
         x="504.7991"
         style="font-size:138.78117371px;font-style:normal;font-variant:normal;font-weight:normal;font-stretch:normal;line-height:125%;letter-spacing:0px;word-spacing:0px;fill:#ffffff;fill-opacity:1;stroke:none;font-family:Arial;-inkscape-font-specification:Sans"
         xml:space="preserve"><tspan
           style="font-style:normal;font-variant:normal;font-weight:bold;font-stretch:normal;fill:#ffffff;stroke:none;font-family:Linux Libertine;-inkscape-font-specification:Linux Libertine Bold"
           y="646.1673"
           x="504.7991"
           id="tspan3036"
           sodipodi:role="line">Cheng Tan</tspan></text>
    </g>
    <g
       id="g4167"
       transform="matrix(0.89472124,0,0,0.89472124,96.3364,135.60868)">
      <text
         xml:space="preserve"
         style="font-size:138.78117371px;font-style:normal;font-variant:normal;font-weight:normal;font-stretch:normal;line-height:125%;letter-spacing:0px;word-spacing:0px;opacity:0.8;fill:#000000;fill-opacity:1;stroke:none;filter:url(#filter4181);font-family:Arial;-inkscape-font-specification:Sans"
         x="587.27661"
         y="766.22382"
         id="text4105"
         sodipodi:linespacing="125%"
         transform="matrix(0.96854707,0.24883039,-0.24883039,0.96854707,0,0)"><tspan
           sodipodi:role="line"
           id="tspan4107"
           x="587.27661"
           y="766.22382"
           style="font-size:64px;font-style:normal;font-variant:normal;font-weight:bold;font-stretch:normal;fill:#000000;fill-opacity:1;font-family:Linux Libertine;-inkscape-font-specification:Linux Libertine Bold">noinil@gmail.com</tspan></text>
      <text
         transform="matrix(0.96854707,0.24883039,-0.24883039,0.96854707,0,0)"
         sodipodi:linespacing="125%"
         id="text3034-5"
         y="766.22382"
         x="587.27661"
         style="font-size:138.78117371px;font-style:normal;font-variant:normal;font-weight:normal;font-stretch:normal;line-height:125%;letter-spacing:0px;word-spacing:0px;fill:#ffffff;fill-opacity:1;stroke:none;font-family:Arial;-inkscape-font-specification:Sans"
         xml:space="preserve"><tspan
           style="font-size:64px;font-style:normal;font-variant:normal;font-weight:bold;font-stretch:normal;fill:#ffffff;font-family:Linux Libertine;-inkscape-font-specification:Linux Libertine Bold"
           y="766.22382"
           x="587.27661"
           id="tspan3036-2"
           sodipodi:role="line">noinil@gmail.com</tspan></text>
    </g>
    <g
       id="g4029"
       transform="matrix(0.94442408,0,0,0.96305959,-798.80669,-135.16987)"
       style="opacity:0.46889954">
      <rect
         style="opacity:0.67464115;color:#000000;fill:#2b0ede;fill-opacity:0.69270833;fill-rule:evenodd;stroke:none;stroke-width:2.79999995;marker:none;visibility:visible;display:inline;overflow:visible;enable-background:accumulate"
         id="rect5913"
         width="51.733799"
         height="54.377247"
         x="1816.543"
         y="167.45604"
         transform="matrix(0.97589949,0.21822049,-0.31639787,0.94862658,0,0)"
         rx="13.06267"
         ry="13.102214" />
      <rect
         ry="13.102214"
         rx="13.06267"
         transform="matrix(0.97589949,0.21822049,-0.31639787,0.94862658,0,0)"
         y="226.85976"
         x="1816.543"
         height="54.377247"
         width="51.733799"
         id="rect5939"
         style="opacity:0.6;color:#000000;fill:#7f5e53;fill-opacity:0.56329441;fill-rule:evenodd;stroke:none;stroke-width:2.79999995;marker:none;visibility:visible;display:inline;overflow:visible;enable-background:accumulate" />
      <rect
         style="opacity:0.6;color:#000000;fill:#7f5e53;fill-opacity:0.56329441;fill-rule:evenodd;stroke:none;stroke-width:2.79999995;marker:none;visibility:visible;display:inline;overflow:visible;enable-background:accumulate"
         id="rect5941"
         width="51.733799"
         height="54.377247"
         x="1816.543"
         y="286.26334"
         transform="matrix(0.97589949,0.21822049,-0.31639787,0.94862658,0,0)"
         rx="13.06267"
         ry="13.102214" />
      <rect
         ry="13.102214"
         rx="13.06267"
         transform="matrix(0.97589949,0.21822049,-0.31639787,0.94862658,0,0)"
         y="167.33139"
         x="1873.0692"
         height="54.377247"
         width="51.733799"
         id="rect5943"
         style="opacity:0.67464115;color:#000000;fill:#2b0ede;fill-opacity:0.69270833;fill-rule:evenodd;stroke:none;stroke-width:2.79999995;marker:none;visibility:visible;display:inline;overflow:visible;enable-background:accumulate" />
      <rect
         style="opacity:0.67464115;color:#000000;fill:#2b0ede;fill-opacity:0.69270833;fill-rule:evenodd;stroke:none;stroke-width:2.79999995;marker:none;visibility:visible;display:inline;overflow:visible;enable-background:accumulate"
         id="rect5945"
         width="51.733799"
         height="54.377247"
         x="1929.5955"
         y="167.20674"
         transform="matrix(0.97589949,0.21822049,-0.31639787,0.94862658,0,0)"
         rx="13.06267"
         ry="13.102214" />
      <rect
         style="opacity:0.81818183;color:#000000;fill:#805f53;fill-opacity:0.3372549;fill-rule:evenodd;stroke:none;stroke-width:2.79999995;marker:none;visibility:visible;display:inline;overflow:visible;enable-background:accumulate"
         id="rect5947"
         width="51.733799"
         height="54.377247"
         x="1873.0692"
         y="226.7076"
         transform="matrix(0.97589949,0.21822049,-0.31639787,0.94862658,0,0)"
         rx="13.06267"
         ry="13.102214" />
      <rect
         ry="13.102214"
         rx="13.06267"
         transform="matrix(0.97589949,0.21822049,-0.31639787,0.94862658,0,0)"
         y="226.55547"
         x="1929.5955"
         height="54.377247"
         width="51.733799"
         id="rect5949"
         style="opacity:0.67464115;color:#000000;fill:#2b0ede;fill-opacity:0.69270833;fill-rule:evenodd;stroke:none;stroke-width:2.79999995;marker:none;visibility:visible;display:inline;overflow:visible;enable-background:accumulate" />
      <rect
         style="opacity:0.67464115;color:#000000;fill:#2b0ede;fill-opacity:0.69270833;fill-rule:evenodd;stroke:none;stroke-width:2.79999995;marker:none;visibility:visible;display:inline;overflow:visible;enable-background:accumulate"
         id="rect5951"
         width="51.733799"
         height="54.377247"
         x="1929.5955"
         y="285.90405"
         transform="matrix(0.97589949,0.21822049,-0.31639787,0.94862658,0,0)"
         rx="13.06267"
         ry="13.102214" />
      <rect
         ry="13.102214"
         rx="13.06267"
         transform="matrix(0.97589949,0.21822049,-0.31639787,0.94862658,0,0)"
         y="286.08368"
         x="1873.0692"
         height="54.377247"
         width="51.733799"
         id="rect5953"
         style="opacity:0.81818183;color:#000000;fill:#805f53;fill-opacity:0.3372549;fill-rule:evenodd;stroke:none;stroke-width:2.79999995;marker:none;visibility:visible;display:inline;overflow:visible;enable-background:accumulate" />
      <rect
         style="opacity:0.6;color:#000000;fill:#7f5e53;fill-opacity:0.56329441;fill-rule:evenodd;stroke:none;stroke-width:2.79999995;marker:none;visibility:visible;display:inline;overflow:visible;enable-background:accumulate"
         id="rect5973"
         width="26.363554"
         height="53.509682"
         x="1934.6257"
         y="-797.10559"
         transform="matrix(0.72708942,0.68654277,-0.31639787,0.94862658,0,0)"
         rx="11.116494"
         ry="11.143001" />
      <rect
         ry="11.143001"
         rx="11.116494"
         transform="matrix(0.72708942,0.68654277,-0.31639787,0.94862658,0,0)"
         y="-798.16058"
         x="1963.6875"
         height="53.509682"
         width="26.363554"
         id="rect5977"
         style="opacity:0.6;color:#000000;fill:#7f5e53;fill-opacity:0.56329441;fill-rule:evenodd;stroke:none;stroke-width:2.79999995;marker:none;visibility:visible;display:inline;overflow:visible;enable-background:accumulate" />
      <rect
         style="opacity:0.83732054;color:#000000;fill:#ff3800;fill-opacity:0.73958333;fill-rule:evenodd;stroke:none;stroke-width:2.79999995;marker:none;visibility:visible;display:inline;overflow:visible;enable-background:accumulate"
         id="rect5955"
         width="26.363554"
         height="53.509682"
         x="1905.564"
         y="-856.97412"
         transform="matrix(0.72708942,0.68654277,-0.31639787,0.94862658,0,0)"
         rx="11.116494"
         ry="11.143001" />
      <rect
         ry="11.143001"
         rx="11.116494"
         transform="matrix(0.72708942,0.68654277,-0.31639787,0.94862658,0,0)"
         y="-855.8454"
         x="1934.6257"
         height="53.509682"
         width="26.363554"
         id="rect5965"
         style="opacity:0.83732054;color:#000000;fill:#ff3800;fill-opacity:0.73958333;fill-rule:evenodd;stroke:none;stroke-width:2.79999995;marker:none;visibility:visible;display:inline;overflow:visible;enable-background:accumulate" />
      <rect
         style="opacity:0.83732054;color:#000000;fill:#ff3800;fill-opacity:0.73958333;fill-rule:evenodd;stroke:none;stroke-width:2.79999995;marker:none;visibility:visible;display:inline;overflow:visible;enable-background:accumulate"
         id="rect5967"
         width="26.363554"
         height="53.509682"
         x="1963.6875"
         y="-857.39062"
         transform="matrix(0.72708942,0.68654277,-0.31639787,0.94862658,0,0)"
         rx="11.116494"
         ry="11.143001" />
      <rect
         ry="11.143001"
         rx="11.116494"
         transform="matrix(0.72708942,0.68654277,-0.31639787,0.94862658,0,0)"
         y="-797.83319"
         x="1905.564"
         height="53.509682"
         width="26.363554"
         id="rect5969"
         style="opacity:0.83732054;color:#000000;fill:#ff3800;fill-opacity:0.73958333;fill-rule:evenodd;stroke:none;stroke-width:2.79999995;marker:none;visibility:visible;display:inline;overflow:visible;enable-background:accumulate" />
      <rect
         style="opacity:0.83732054;color:#000000;fill:#ff3800;fill-opacity:0.73958333;fill-rule:evenodd;stroke:none;stroke-width:2.79999995;marker:none;visibility:visible;display:inline;overflow:visible;enable-background:accumulate"
         id="rect5971"
         width="26.363554"
         height="53.509682"
         x="1905.564"
         y="-738.69226"
         transform="matrix(0.72708942,0.68654277,-0.31639787,0.94862658,0,0)"
         rx="11.116494"
         ry="11.143001" />
      <rect
         ry="11.143001"
         rx="11.116494"
         transform="matrix(0.72708942,0.68654277,-0.31639787,0.94862658,0,0)"
         y="-738.36572"
         x="1934.6257"
         height="53.509682"
         width="26.363554"
         id="rect5975"
         style="opacity:0.92823032;color:#000000;fill:#806053;fill-opacity:0.31372549;fill-rule:evenodd;stroke:none;stroke-width:2.79999995;marker:none;visibility:visible;display:inline;overflow:visible;enable-background:accumulate" />
      <rect
         style="opacity:0.92823032;color:#000000;fill:#805f53;fill-opacity:0.3372549;fill-rule:evenodd;stroke:none;stroke-width:2.79999995;marker:none;visibility:visible;display:inline;overflow:visible;enable-background:accumulate"
         id="rect5979"
         width="26.363554"
         height="53.509682"
         x="1963.6875"
         y="-738.93054"
         transform="matrix(0.72708942,0.68654277,-0.31639787,0.94862658,0,0)"
         rx="11.116494"
         ry="11.143001" />
      <rect
         ry="10.256047"
         rx="10.256047"
         transform="matrix(0.97554636,0.21979378,0.73540261,0.67763043,0,0)"
         y="295.151"
         x="1522.3624"
         height="26.032776"
         width="50.168064"
         id="rect5981"
         style="opacity:0.6;color:#000000;fill:#7f5e53;fill-opacity:0.56329441;fill-rule:evenodd;stroke:none;stroke-width:2.79999995;marker:none;visibility:visible;display:inline;overflow:visible;enable-background:accumulate" />
      <rect
         style="opacity:0.6;color:#000000;fill:#7f5e53;fill-opacity:0.56329441;fill-rule:evenodd;stroke:none;stroke-width:2.79999995;marker:none;visibility:visible;display:inline;overflow:visible;enable-background:accumulate"
         id="rect5983"
         width="50.168064"
         height="26.032776"
         x="1579.2098"
         y="295.20282"
         transform="matrix(0.97554636,0.21979378,0.73540261,0.67763043,0,0)"
         rx="10.256047"
         ry="10.256047" />
      <rect
         ry="10.256047"
         rx="10.256047"
         transform="matrix(0.97554636,0.21979378,0.73540261,0.67763043,0,0)"
         y="295.2294"
         x="1636.0804"
         height="26.032776"
         width="50.168064"
         id="rect5985"
         style="opacity:0.6;color:#000000;fill:#7f5e53;fill-opacity:0.56329441;fill-rule:evenodd;stroke:none;stroke-width:2.79999995;marker:none;visibility:visible;display:inline;overflow:visible;enable-background:accumulate" />
      <rect
         style="opacity:0.6;color:#000000;fill:#7f5e53;fill-opacity:0.56329441;fill-rule:evenodd;stroke:none;stroke-width:2.79999995;marker:none;visibility:visible;display:inline;overflow:visible;enable-background:accumulate"
         id="rect5987"
         width="50.168064"
         height="26.032776"
         x="1521.5521"
         y="266.70044"
         transform="matrix(0.97554636,0.21979378,0.73540261,0.67763043,0,0)"
         rx="10.256047"
         ry="10.256047" />
      <rect
         ry="10.256047"
         rx="10.256047"
         transform="matrix(0.97554636,0.21979378,0.73540261,0.67763043,0,0)"
         y="266.75226"
         x="1578.3997"
         height="26.032776"
         width="50.168064"
         id="rect5989"
         style="opacity:0.6;color:#000000;fill:#7f5e53;fill-opacity:0.56329441;fill-rule:evenodd;stroke:none;stroke-width:2.79999995;marker:none;visibility:visible;display:inline;overflow:visible;enable-background:accumulate" />
      <rect
         style="opacity:0.6;color:#000000;fill:#7f5e53;fill-opacity:0.56329441;fill-rule:evenodd;stroke:none;stroke-width:2.79999995;marker:none;visibility:visible;display:inline;overflow:visible;enable-background:accumulate"
         id="rect5991"
         width="50.168064"
         height="26.032776"
         x="1635.2703"
         y="266.77884"
         transform="matrix(0.97554636,0.21979378,0.73540261,0.67763043,0,0)"
         rx="10.256047"
         ry="10.256047" />
      <rect
         ry="10.256047"
         rx="10.256047"
         transform="matrix(0.97554636,0.21979378,0.73540261,0.67763043,0,0)"
         y="237.80591"
         x="1521.1488"
         height="26.032776"
         width="50.168064"
         id="rect6000"
         style="opacity:0.6;color:#000000;fill:#7f5e53;fill-opacity:0.56329441;fill-rule:evenodd;stroke:none;stroke-width:2.79999995;marker:none;visibility:visible;display:inline;overflow:visible;enable-background:accumulate" />
      <rect
         style="opacity:0.6;color:#000000;fill:#7f5e53;fill-opacity:0.56329441;fill-rule:evenodd;stroke:none;stroke-width:2.79999995;marker:none;visibility:visible;display:inline;overflow:visible;enable-background:accumulate"
         id="rect6002"
         width="50.168064"
         height="26.032776"
         x="1577.9963"
         y="237.85773"
         transform="matrix(0.97554636,0.21979378,0.73540261,0.67763043,0,0)"
         rx="10.256047"
         ry="10.256047" />
      <rect
         ry="10.256047"
         rx="10.256047"
         transform="matrix(0.97554636,0.21979378,0.73540261,0.67763043,0,0)"
         y="237.88432"
         x="1634.8669"
         height="26.032776"
         width="50.168064"
         id="rect6004"
         style="opacity:0.6;color:#000000;fill:#7f5e53;fill-opacity:0.56329441;fill-rule:evenodd;stroke:none;stroke-width:2.79999995;marker:none;visibility:visible;display:inline;overflow:visible;enable-background:accumulate" />
      <rect
         ry="13.102214"
         rx="13.06267"
         transform="matrix(0.97589949,0.21822049,-0.31639787,0.94862658,0,0)"
         y="167.08211"
         x="1986.1217"
         height="54.377247"
         width="51.733799"
         id="rect3893"
         style="opacity:0.67464115;color:#000000;fill:#2b0ede;fill-opacity:0.69270833;fill-rule:evenodd;stroke:none;stroke-width:2.79999995;marker:none;visibility:visible;display:inline;overflow:visible;enable-background:accumulate" />
      <rect
         style="opacity:0.6;color:#000000;fill:#7f5e53;fill-opacity:0.56329441;fill-rule:evenodd;stroke:none;stroke-width:2.79999995;marker:none;visibility:visible;display:inline;overflow:visible;enable-background:accumulate"
         id="rect3895"
         width="51.733799"
         height="54.377247"
         x="1986.1216"
         y="226.40332"
         transform="matrix(0.97589949,0.21822049,-0.31639787,0.94862658,0,0)"
         rx="13.06267"
         ry="13.102214" />
      <rect
         ry="13.102214"
         rx="13.06267"
         transform="matrix(0.97589949,0.21822049,-0.31639787,0.94862658,0,0)"
         y="285.7244"
         x="1986.1218"
         height="54.377247"
         width="51.733799"
         id="rect3897"
         style="opacity:0.6;color:#000000;fill:#7f5e53;fill-opacity:0.56329441;fill-rule:evenodd;stroke:none;stroke-width:2.79999995;marker:none;visibility:visible;display:inline;overflow:visible;enable-background:accumulate" />
      <rect
         style="opacity:0.67464115;color:#000000;fill:#2b0ede;fill-opacity:0.69270833;fill-rule:evenodd;stroke:none;stroke-width:2.79999995;marker:none;visibility:visible;display:inline;overflow:visible;enable-background:accumulate"
         id="rect3899"
         width="51.733799"
         height="54.377247"
         x="2042.6478"
         y="166.9575"
         transform="matrix(0.97589949,0.21822049,-0.31639787,0.94862658,0,0)"
         rx="13.06267"
         ry="13.102214" />
      <rect
         ry="13.102214"
         rx="13.06267"
         transform="matrix(0.97589949,0.21822049,-0.31639787,0.94862658,0,0)"
         y="226.25116"
         x="2042.6478"
         height="54.377247"
         width="51.733799"
         id="rect3901"
         style="opacity:0.6;color:#000000;fill:#7f5e53;fill-opacity:0.56329441;fill-rule:evenodd;stroke:none;stroke-width:2.79999995;marker:none;visibility:visible;display:inline;overflow:visible;enable-background:accumulate" />
      <rect
         style="opacity:0.6;color:#000000;fill:#7f5e53;fill-opacity:0.56329441;fill-rule:evenodd;stroke:none;stroke-width:2.79999995;marker:none;visibility:visible;display:inline;overflow:visible;enable-background:accumulate"
         id="rect3903"
         width="51.733799"
         height="54.377247"
         x="2042.6481"
         y="285.54474"
         transform="matrix(0.97589949,0.21822049,-0.31639787,0.94862658,0,0)"
         rx="13.06267"
         ry="13.102214" />
      <rect
         ry="13.102214"
         rx="13.06267"
         transform="matrix(0.97589949,0.21822049,-0.31639787,0.94862658,0,0)"
         y="345.87671"
         x="1815.658"
         height="54.377247"
         width="51.733799"
         id="rect3905"
         style="opacity:0.6;color:#000000;fill:#7f5e53;fill-opacity:0.56329441;fill-rule:evenodd;stroke:none;stroke-width:2.79999995;marker:none;visibility:visible;display:inline;overflow:visible;enable-background:accumulate" />
      <rect
         ry="13.102214"
         rx="13.06267"
         transform="matrix(0.97589949,0.21822049,-0.31639787,0.94862658,0,0)"
         y="345.5174"
         x="1928.7104"
         height="54.377247"
         width="51.733799"
         id="rect3907"
         style="opacity:0.67464115;color:#000000;fill:#2b0ede;fill-opacity:0.69270833;fill-rule:evenodd;stroke:none;stroke-width:2.79999995;marker:none;visibility:visible;display:inline;overflow:visible;enable-background:accumulate" />
      <rect
         style="opacity:0.81818183;color:#000000;fill:#805f53;fill-opacity:0.3372549;fill-rule:evenodd;stroke:none;stroke-width:2.79999995;marker:none;visibility:visible;display:inline;overflow:visible;enable-background:accumulate"
         id="rect3909"
         width="51.733799"
         height="54.377247"
         x="1872.1842"
         y="345.69702"
         transform="matrix(0.97589949,0.21822049,-0.31639787,0.94862658,0,0)"
         rx="13.06267"
         ry="13.102214" />
      <rect
         style="opacity:0.6;color:#000000;fill:#7f5e53;fill-opacity:0.56329441;fill-rule:evenodd;stroke:none;stroke-width:2.79999995;marker:none;visibility:visible;display:inline;overflow:visible;enable-background:accumulate"
         id="rect3911"
         width="51.733799"
         height="54.377247"
         x="1985.2368"
         y="345.33774"
         transform="matrix(0.97589949,0.21822049,-0.31639787,0.94862658,0,0)"
         rx="13.06267"
         ry="13.102214" />
      <rect
         ry="13.102214"
         rx="13.06267"
         transform="matrix(0.97589949,0.21822049,-0.31639787,0.94862658,0,0)"
         y="345.15811"
         x="2041.7631"
         height="54.377247"
         width="51.733799"
         id="rect3913"
         style="opacity:0.6;color:#000000;fill:#7f5e53;fill-opacity:0.56329441;fill-rule:evenodd;stroke:none;stroke-width:2.79999995;marker:none;visibility:visible;display:inline;overflow:visible;enable-background:accumulate" />
      <rect
         ry="11.143001"
         rx="11.116494"
         transform="matrix(0.72708942,0.68654277,-0.31639787,0.94862658,0,0)"
         y="-678.58063"
         x="1904.5736"
         height="53.509682"
         width="26.363554"
         id="rect3915"
         style="opacity:0.83732054;color:#000000;fill:#ff3800;fill-opacity:0.73958333;fill-rule:evenodd;stroke:none;stroke-width:2.79999995;marker:none;visibility:visible;display:inline;overflow:visible;enable-background:accumulate" />
      <rect
         style="opacity:0.83732054;color:#000000;fill:#ff3800;fill-opacity:0.73958333;fill-rule:evenodd;stroke:none;stroke-width:2.79999995;marker:none;visibility:visible;display:inline;overflow:visible;enable-background:accumulate"
         id="rect3917"
         width="26.363554"
         height="53.509682"
         x="1933.6354"
         y="-678.25409"
         transform="matrix(0.72708942,0.68654277,-0.31639787,0.94862658,0,0)"
         rx="11.116494"
         ry="11.143001" />
      <rect
         ry="11.143001"
         rx="11.116494"
         transform="matrix(0.72708942,0.68654277,-0.31639787,0.94862658,0,0)"
         y="-678.81891"
         x="1962.697"
         height="53.509682"
         width="26.363554"
         id="rect3919"
         style="opacity:0.83732054;color:#000000;fill:#ff3800;fill-opacity:0.73958333;fill-rule:evenodd;stroke:none;stroke-width:2.79999995;marker:none;visibility:visible;display:inline;overflow:visible;enable-background:accumulate" />
      <rect
         style="opacity:0.6;color:#000000;fill:#7f5e53;fill-opacity:0.56329441;fill-rule:evenodd;stroke:none;stroke-width:2.79999995;marker:none;visibility:visible;display:inline;overflow:visible;enable-background:accumulate"
         id="rect3921"
         width="50.168064"
         height="26.032776"
         x="1692.1273"
         y="293.68402"
         transform="matrix(0.97554636,0.21979378,0.73540261,0.67763043,0,0)"
         rx="10.256047"
         ry="10.256047" />
      <rect
         ry="10.256047"
         rx="10.256047"
         transform="matrix(0.97554636,0.21979378,0.73540261,0.67763043,0,0)"
         y="265.23346"
         x="1691.317"
         height="26.032776"
         width="50.168064"
         id="rect3923"
         style="opacity:0.6;color:#000000;fill:#7f5e53;fill-opacity:0.56329441;fill-rule:evenodd;stroke:none;stroke-width:2.79999995;marker:none;visibility:visible;display:inline;overflow:visible;enable-background:accumulate" />
      <rect
         style="opacity:0.6;color:#000000;fill:#7f5e53;fill-opacity:0.56329441;fill-rule:evenodd;stroke:none;stroke-width:2.79999995;marker:none;visibility:visible;display:inline;overflow:visible;enable-background:accumulate"
         id="rect3925"
         width="50.168064"
         height="26.032776"
         x="1690.9137"
         y="236.33891"
         transform="matrix(0.97554636,0.21979378,0.73540261,0.67763043,0,0)"
         rx="10.256047"
         ry="10.256047" />
      <rect
         ry="10.256047"
         rx="10.256047"
         transform="matrix(0.97554636,0.21979378,0.73540261,0.67763043,0,0)"
         y="294.8631"
         x="1746.1202"
         height="26.032776"
         width="50.168064"
         id="rect3927"
         style="opacity:0.6;color:#000000;fill:#7f5e53;fill-opacity:0.56329441;fill-rule:evenodd;stroke:none;stroke-width:2.79999995;marker:none;visibility:visible;display:inline;overflow:visible;enable-background:accumulate" />
      <rect
         style="opacity:0.6;color:#000000;fill:#7f5e53;fill-opacity:0.56329441;fill-rule:evenodd;stroke:none;stroke-width:2.79999995;marker:none;visibility:visible;display:inline;overflow:visible;enable-background:accumulate"
         id="rect3929"
         width="50.168064"
         height="26.032776"
         x="1745.3101"
         y="266.41254"
         transform="matrix(0.97554636,0.21979378,0.73540261,0.67763043,0,0)"
         rx="10.256047"
         ry="10.256047" />
      <rect
         ry="10.256047"
         rx="10.256047"
         transform="matrix(0.97554636,0.21979378,0.73540261,0.67763043,0,0)"
         y="237.51801"
         x="1744.9067"
         height="26.032776"
         width="50.168064"
         id="rect3931"
         style="opacity:0.6;color:#000000;fill:#7f5e53;fill-opacity:0.56329441;fill-rule:evenodd;stroke:none;stroke-width:2.79999995;marker:none;visibility:visible;display:inline;overflow:visible;enable-background:accumulate" />
    </g>
    <path
       style="opacity:0.87124406;color:#000000;fill:#25002f;fill-opacity:1;fill-rule:evenodd;stroke:none;stroke-width:3;marker:none;visibility:visible;display:inline;overflow:visible;filter:url(#filter3892);enable-background:accumulate"
       d="m 453.57656,203.21932 c -3.38837,96.0359 -82.30991,172.85 -179.17235,172.85 -12.02948,0 -23.78225,-1.18475 -35.14799,-3.44391"
       id="path2991"
       inkscape:connector-curvature="0"
       clip-path="url(#clipPath3906)"
       transform="matrix(2.5894658,0,0,2.5894658,-376.93045,-315.76841)" />
    <path
       inkscape:connector-curvature="0"
       id="path3886"
       d="m 449.57656,199.21932 c -3.38837,96.0359 -82.30991,172.85 -179.17235,172.85 -12.02948,0 -23.78225,-1.18475 -35.14799,-3.44391"
       style="color:#000000;fill:#25d0b8;fill-opacity:1;fill-rule:evenodd;stroke:none;stroke-width:3;marker:none;visibility:visible;display:inline;overflow:visible;enable-background:accumulate"
       clip-path="url(#clipPath3898)"
       transform="matrix(2.5894658,0,0,2.5894658,-376.93045,-315.76841)" />
    <g
       id="g4242"
       transform="translate(-27.142857,41.428571)">
      <text
         transform="matrix(0.96854707,0.24883039,-0.24883039,0.96854707,0,0)"
         sodipodi:linespacing="125%"
         id="text4206"
         y="682.1391"
         x="570.09918"
         style="font-size:138.78117371px;font-style:normal;font-variant:normal;font-weight:normal;font-stretch:normal;line-height:125%;letter-spacing:0px;word-spacing:0px;opacity:0.8;fill:#000000;fill-opacity:1;stroke:none;filter:url(#filter4238);font-family:Arial;-inkscape-font-specification:Sans"
         xml:space="preserve"><tspan
           style="font-size:56px;font-style:normal;font-variant:normal;font-weight:bold;font-stretch:normal;fill:#000000;fill-opacity:1;stroke:none;font-family:Linux Libertine;-inkscape-font-specification:Linux Libertine Bold"
           y="682.1391"
           x="570.09918"
           id="tspan4208"
           sodipodi:role="line">http://oinil.blogspot.com/</tspan></text>
      <text
         xml:space="preserve"
         style="font-size:138.78117371px;font-style:normal;font-variant:normal;font-weight:normal;font-stretch:normal;line-height:125%;letter-spacing:0px;word-spacing:0px;fill:#ffffff;fill-opacity:1;stroke:none;font-family:Arial;-inkscape-font-specification:Sans"
         x="570.09918"
         y="682.1391"
         id="text3034-2"
         sodipodi:linespacing="125%"
         transform="matrix(0.96854707,0.24883039,-0.24883039,0.96854707,0,0)"><tspan
           sodipodi:role="line"
           id="tspan3036-1"
           x="570.09918"
           y="682.1391"
           style="font-size:56px;font-style:normal;font-variant:normal;font-weight:bold;font-stretch:normal;fill:#ffffff;stroke:none;font-family:Linux Libertine;-inkscape-font-specification:Linux Libertine Bold">http://oinil.blogspot.com/</tspan></text>
    </g>
    <path
       style="opacity:0.53399999;color:#000000;fill:#23138a;fill-opacity:1;fill-rule:evenodd;stroke:none;stroke-width:3;marker:none;visibility:visible;display:inline;overflow:visible;filter:url(#filter4144);enable-background:accumulate"
       d="m 539.21875,245.875 c 30.08045,32.06613 48.5,75.18905 48.5,122.625 0,99.01676 -80.26449,179.28125 -179.28125,179.28125 -47.39016,0 -90.50598,-18.37732 -122.5625,-48.40625 32.69681,34.72762 79.1004,56.40625 130.5625,56.40625 99.01676,0 179.28125,-80.26449 179.28125,-179.28125 0,-51.50568 -21.72087,-97.92374 -56.5,-130.625 z"
       id="path3768"
       inkscape:connector-curvature="0"
       clip-path="url(#clipPath3902)"
       transform="matrix(2.5894658,0,0,2.5894658,-376.93045,-315.76841)" />
  </g>
</svg>
