<?xml version="1.0" encoding="UTF-8" standalone="no"?>
<!-- Created with Inkscape (http://www.inkscape.org/) -->

<svg
   xmlns:dc="http://purl.org/dc/elements/1.1/"
   xmlns:cc="http://creativecommons.org/ns#"
   xmlns:rdf="http://www.w3.org/1999/02/22-rdf-syntax-ns#"
   xmlns:svg="http://www.w3.org/2000/svg"
   xmlns="http://www.w3.org/2000/svg"
   xmlns:sodipodi="http://sodipodi.sourceforge.net/DTD/sodipodi-0.dtd"
   xmlns:inkscape="http://www.inkscape.org/namespaces/inkscape"
   width="1227.4559"
   height="1070.9683"
   id="svg6288"
   version="1.1"
   inkscape:version="0.48.4 r9939"
   sodipodi:docname="Inkscape_snowflake_2013-11-06 11:08:04.svg">
  <defs
     id="defs6290" />
  <sodipodi:namedview
     id="base"
     pagecolor="#ffffff"
     bordercolor="#666666"
     borderopacity="1.0"
     inkscape:pageopacity="0.0"
     inkscape:pageshadow="2"
     inkscape:zoom="0.6"
     inkscape:cx="455.32328"
     inkscape:cy="541.16066"
     inkscape:current-layer="layer1"
     inkscape:document-units="px"
     showgrid="false"
     fit-margin-top="0"
     fit-margin-left="0"
     fit-margin-right="0"
     fit-margin-bottom="0"
     inkscape:window-width="1920"
     inkscape:window-height="1060"
     inkscape:window-x="-2"
     inkscape:window-y="-3"
     inkscape:window-maximized="1" />
  <metadata
     id="metadata6293">
    <rdf:RDF>
      <cc:Work
         rdf:about="">
        <dc:format>image/svg+xml</dc:format>
        <dc:type
           rdf:resource="http://purl.org/dc/dcmitype/StillImage" />
        <dc:title />
      </cc:Work>
    </rdf:RDF>
  </metadata>
  <g
     id="layer1"
     inkscape:label="Layer 1"
     inkscape:groupmode="layer"
     transform="translate(-22.528917,-46.048608)">
    <text
       xml:space="preserve"
       style="font-size:146.86073303px;font-style:normal;font-variant:normal;font-weight:normal;font-stretch:normal;line-height:125%;letter-spacing:0px;word-spacing:0px;opacity:0.79904306;fill:#cccccc;fill-opacity:0.39790578;stroke:none;font-family:Arial;-inkscape-font-specification:Sans"
       x="58.818195"
       y="911.58539"
       id="text3018"
       sodipodi:linespacing="125%"><tspan
         sodipodi:role="line"
         id="tspan3020"
         x="58.818195"
         y="911.58539">noinil@gmail.com</tspan></text>
    <path
       sodipodi:type="star"
       style="opacity:0.44497609;color:#000000;fill:#000080;fill-opacity:1;fill-rule:evenodd;stroke:none;stroke-width:3;marker:none;visibility:visible;display:inline;overflow:visible;enable-background:accumulate"
       id="path6321"
       sodipodi:sides="6"
       sodipodi:cx="548.5"
       sodipodi:cy="3909.5"
       sodipodi:r1="0.61502033"
       sodipodi:r2="61.502033"
       sodipodi:arg1="1.5789262"
       sodipodi:arg2="2.102525"
       inkscape:flatsided="false"
       inkscape:rounded="0.5"
       inkscape:randomized="0"
       d="m 548.495,3910.115 c -30.48409,-0.2478 -4.90194,67.8522 -31.17801,52.3956 -26.27608,-15.4567 45.67531,-26.1835 30.6479,-52.7074 C 532.93749,3883.2793 486.75216,3939.4841 487,3909 c 0.24784,-30.4841 45.51322,26.4642 60.96989,0.1882 15.45668,-26.2761 -56.31079,-38.1714 -29.78688,-53.1988 26.52391,-15.0274 -0.1621,52.6478 30.32199,52.8956 30.48409,0.2478 4.90194,-67.8522 31.17801,-52.3956 26.27608,15.4567 -45.67531,26.1835 -30.6479,52.7074 15.0274,26.5239 61.21273,-29.6809 60.96489,0.8032 -0.24784,30.4841 -45.51322,-26.4642 -60.96989,-0.1882 -15.45668,26.2761 56.31079,38.1714 29.78688,53.1988 -26.52391,15.0274 0.1621,-52.6478 -30.32199,-52.8956 z"
       inkscape:transform-center-y="-5.8317398"
       transform="matrix(0.97915944,0,0,0.99049764,417.79021,-3770.3817)" />
    <path
       transform="matrix(0.97915944,0,0,0.99049764,620.37156,-3770.3817)"
       inkscape:transform-center-y="-5.8317398"
       d="m 548.495,3910.115 c -36.5809,-0.2974 0.35328,70.9436 -31.17801,52.3956 -31.53129,-18.548 48.68079,-20.8787 30.6479,-52.7074 C 529.932,3877.9745 486.70259,3945.5809 487,3909 c 0.2974,-36.5809 42.42188,31.7195 60.96989,0.1882 18.54802,-31.5313 -61.61557,-35.1659 -29.78688,-53.1988 31.8287,-18.0329 -6.25891,52.5982 30.32199,52.8956 36.5809,0.2974 -0.35328,-70.9436 31.17801,-52.3956 31.53129,18.548 -48.68079,20.8787 -30.6479,52.7074 18.03289,31.8287 61.2623,-35.7777 60.96489,0.8032 -0.2974,36.5809 -42.42188,-31.7195 -60.96989,-0.1882 -18.54802,31.5313 61.61557,35.1659 29.78688,53.1988 -31.8287,18.0329 6.25891,-52.5982 -30.32199,-52.8956 z"
       inkscape:randomized="0"
       inkscape:rounded="0.6"
       inkscape:flatsided="false"
       sodipodi:arg2="2.102525"
       sodipodi:arg1="1.5789262"
       sodipodi:r2="61.502033"
       sodipodi:r1="0.61502033"
       sodipodi:cy="3909.5"
       sodipodi:cx="548.5"
       sodipodi:sides="6"
       id="path6323"
       style="opacity:0.44497609;color:#000000;fill:#000080;fill-opacity:1;fill-rule:evenodd;stroke:none;stroke-width:3;marker:none;visibility:visible;display:inline;overflow:visible;enable-background:accumulate"
       sodipodi:type="star" />
    <path
       sodipodi:type="star"
       style="opacity:0.44497609;color:#000000;fill:#000080;fill-opacity:1;fill-rule:evenodd;stroke:none;stroke-width:3;marker:none;visibility:visible;display:inline;overflow:visible;enable-background:accumulate"
       id="path5421-5"
       sodipodi:sides="6"
       sodipodi:cx="548.5"
       sodipodi:cy="3909.5"
       sodipodi:r1="0.61502033"
       sodipodi:r2="61.502033"
       sodipodi:arg1="1.5789262"
       sodipodi:arg2="2.102525"
       inkscape:flatsided="false"
       inkscape:rounded="0.1"
       inkscape:randomized="0"
       d="m 548.495,3910.115 c -6.09682,-0.05 -25.9228,55.4869 -31.17801,52.3956 -5.25522,-3.0914 33.65339,-47.4026 30.6479,-52.7074 -3.00548,-5.3048 -61.01446,5.2936 -60.96489,-0.8032 0.0496,-6.0968 57.87856,5.4434 60.96989,0.1882 3.09134,-5.2552 -35.09166,-50.1933 -29.78688,-53.1988 5.30478,-3.0054 24.22517,52.846 30.32199,52.8956 6.09682,0.05 25.9228,-55.4869 31.17801,-52.3956 5.25522,3.0914 -33.65339,47.4026 -30.6479,52.7074 3.00548,5.3048 61.01446,-5.2936 60.96489,0.8032 -0.0496,6.0968 -57.87856,-5.4434 -60.96989,-0.1882 -3.09134,5.2552 35.09166,50.1933 29.78688,53.1988 -5.30478,3.0054 -24.22517,-52.846 -30.32199,-52.8956 z"
       inkscape:transform-center-y="-5.8317398"
       transform="matrix(0.97915944,0,0,0.99049764,-420.56842,-3770.3817)" />
    <path
       transform="matrix(0.97915944,0,0,0.99049764,-201.35869,-3770.3817)"
       inkscape:transform-center-y="-5.8317398"
       d="m 548.495,3910.115 c -12.19363,-0.099 -20.66758,58.5782 -31.17801,52.3956 -10.51043,-6.1827 36.65887,-42.0979 30.6479,-52.7074 C 541.95393,3899.1936 486.90086,3921.1936 487,3909 c 0.0991,-12.1936 54.78722,10.6986 60.96989,0.1882 6.18268,-10.5105 -40.39644,-47.1878 -29.78688,-53.1988 10.60957,-6.0109 18.12836,52.7965 30.32199,52.8956 12.19363,0.099 20.66758,-58.5782 31.17801,-52.3956 10.51043,6.1827 -36.65887,42.0979 -30.6479,52.7074 6.01096,10.6096 61.06403,-11.3904 60.96489,0.8032 -0.0991,12.1936 -54.78722,-10.6986 -60.96989,-0.1882 -6.18268,10.5105 40.39644,47.1878 29.78688,53.1988 -10.60957,6.0109 -18.12836,-52.7965 -30.32199,-52.8956 z"
       inkscape:randomized="0"
       inkscape:rounded="0.2"
       inkscape:flatsided="false"
       sodipodi:arg2="2.102525"
       sodipodi:arg1="1.5789262"
       sodipodi:r2="61.502033"
       sodipodi:r1="0.61502033"
       sodipodi:cy="3909.5"
       sodipodi:cx="548.5"
       sodipodi:sides="6"
       id="path6315"
       style="opacity:0.44497609;color:#000000;fill:#000080;fill-opacity:1;fill-rule:evenodd;stroke:none;stroke-width:3;marker:none;visibility:visible;display:inline;overflow:visible;enable-background:accumulate"
       sodipodi:type="star" />
    <path
       sodipodi:type="star"
       style="opacity:0.44497609;color:#000000;fill:#000080;fill-opacity:1;fill-rule:evenodd;stroke:none;stroke-width:3;marker:none;visibility:visible;display:inline;overflow:visible;enable-background:accumulate"
       id="path6317"
       sodipodi:sides="6"
       sodipodi:cx="548.5"
       sodipodi:cy="3909.5"
       sodipodi:r1="0.61502033"
       sodipodi:r2="61.502033"
       sodipodi:arg1="1.5789262"
       sodipodi:arg2="2.102525"
       inkscape:flatsided="false"
       inkscape:rounded="0.3"
       inkscape:randomized="0"
       d="m 548.495,3910.115 c -18.29045,-0.1487 -15.41237,61.6696 -31.17801,52.3956 -15.76565,-9.274 39.66435,-36.7931 30.6479,-52.7074 C 538.94845,3893.8888 486.8513,3927.2905 487,3909 c 0.1487,-18.2905 51.69589,15.9538 60.96989,0.1882 9.27401,-15.7657 -45.70122,-44.1823 -29.78688,-53.1988 15.91435,-9.0164 12.03154,52.7469 30.32199,52.8956 18.29045,0.1487 15.41237,-61.6696 31.17801,-52.3956 15.76565,9.274 -39.66435,36.7931 -30.6479,52.7074 9.01644,15.9144 61.11359,-17.4873 60.96489,0.8032 -0.1487,18.2905 -51.69589,-15.9538 -60.96989,-0.1882 -9.27401,15.7657 45.70122,44.1823 29.78688,53.1988 -15.91435,9.0164 -12.03154,-52.7469 -30.32199,-52.8956 z"
       inkscape:transform-center-y="-5.8317398"
       transform="matrix(0.97915944,0,0,0.99049764,10.571274,-3770.3817)" />
    <path
       transform="matrix(0.97915944,0,0,0.99049764,219.671,-3770.3817)"
       inkscape:transform-center-y="-5.8317398"
       d="m 548.495,3910.115 c -24.38727,-0.1983 -10.15715,64.7609 -31.17801,52.3956 -21.02086,-12.3654 42.66983,-31.4883 30.6479,-52.7074 C 535.94297,3888.584 486.80173,3933.3873 487,3909 c 0.19827,-24.3873 48.60455,21.209 60.96989,0.1882 12.36535,-21.0209 -51.00601,-41.1768 -29.78688,-53.1988 21.21913,-12.0219 5.93472,52.6973 30.32199,52.8956 24.38727,0.1983 10.15715,-64.7609 31.17801,-52.3956 21.02086,12.3654 -42.66983,31.4883 -30.6479,52.7074 12.02192,21.2192 61.16316,-23.5841 60.96489,0.8032 -0.19827,24.3873 -48.60455,-21.209 -60.96989,-0.1882 -12.36535,21.0209 51.00601,41.1768 29.78688,53.1988 -21.21913,12.0219 -5.93472,-52.6973 -30.32199,-52.8956 z"
       inkscape:randomized="0"
       inkscape:rounded="0.4"
       inkscape:flatsided="false"
       sodipodi:arg2="2.102525"
       sodipodi:arg1="1.5789262"
       sodipodi:r2="61.502033"
       sodipodi:r1="0.61502033"
       sodipodi:cy="3909.5"
       sodipodi:cx="548.5"
       sodipodi:sides="6"
       id="path6319"
       style="opacity:0.44497609;color:#000000;fill:#000080;fill-opacity:1;fill-rule:evenodd;stroke:none;stroke-width:3;marker:none;visibility:visible;display:inline;overflow:visible;enable-background:accumulate"
       sodipodi:type="star" />
    <path
       sodipodi:type="star"
       style="opacity:0.44497609;color:#000000;fill:#000080;fill-opacity:1;fill-rule:evenodd;stroke:none;stroke-width:3;marker:none;visibility:visible;display:inline;overflow:visible;enable-background:accumulate"
       id="path6571"
       sodipodi:sides="6"
       sodipodi:cx="548.5"
       sodipodi:cy="3909.5"
       sodipodi:r1="30.751017"
       sodipodi:r2="61.502033"
       sodipodi:arg1="1.5789262"
       sodipodi:arg2="2.102525"
       inkscape:flatsided="false"
       inkscape:rounded="2"
       inkscape:randomized="0"
       d="m 548.25,3940.25 c -76.21779,-0.6197 34.7637,60.9061 -30.93301,22.2606 -65.69672,-38.6456 41.99999,28.4643 4.42773,-37.8521 C 484.17246,3858.3421 486.38034,3985.2178 487,3909 c 0.61965,-76.2178 -3.65082,50.6052 34.99472,-15.0915 38.64553,-65.6967 -70.12808,-0.3468 -3.81171,-37.9191 66.31637,-37.5722 -45.6508,22.1409 30.56699,22.7606 76.21779,0.6197 -34.7637,-60.9061 30.93301,-22.2606 65.69672,38.6456 -41.99999,-28.4643 -4.42773,37.8521 37.57226,66.3164 35.36438,-60.5593 34.74472,15.6585 -0.61965,76.2178 3.65082,-50.6052 -34.99472,15.0915 -38.64553,65.6967 70.12808,0.3468 3.81171,37.9191 -66.31637,37.5722 45.6508,-22.1409 -30.56699,-22.7606 z"
       inkscape:transform-center-y="-5.8317398"
       transform="matrix(0.97915944,0,0,0.99049764,417.79021,-3608.1139)" />
    <path
       transform="matrix(0.97915944,0,0,0.99049764,620.37156,-3608.1139)"
       inkscape:transform-center-y="-5.8317398"
       d="m 548.2,3946.4 c -104.49438,-0.8495 59.187,69.0935 -30.88301,16.1106 -90.07002,-52.983 50.58813,56.0992 -0.92333,-34.8204 C 464.8822,3836.7706 486.15045,4013.4944 487,3909 c 0.84954,-104.4944 -23.28925,71.8602 29.69366,-18.2098 52.98292,-90.07 -89.43021,16.7107 1.48935,-34.8008 90.91956,-51.5114 -73.87739,15.7611 30.61699,16.6106 104.49438,0.8495 -59.187,-69.0935 30.88301,-16.1106 90.07002,52.983 -50.58813,-56.0992 0.92333,34.8204 51.51146,90.9196 30.24321,-85.8042 29.39366,18.6902 -0.84954,104.4944 23.28925,-71.8602 -29.69366,18.2098 -52.98292,90.07 89.43021,-16.7107 -1.48935,34.8008 C 487.89743,4014.522 652.69438,3947.2495 548.2,3946.4 z"
       inkscape:randomized="0"
       inkscape:rounded="3"
       inkscape:flatsided="false"
       sodipodi:arg2="2.102525"
       sodipodi:arg1="1.5789262"
       sodipodi:r2="61.502033"
       sodipodi:r1="36.901218"
       sodipodi:cy="3909.5"
       sodipodi:cx="548.5"
       sodipodi:sides="6"
       id="path6573"
       style="opacity:0.44497609;color:#000000;fill:#000080;fill-opacity:1;fill-rule:evenodd;stroke:none;stroke-width:3;marker:none;visibility:visible;display:inline;overflow:visible;enable-background:accumulate"
       sodipodi:type="star" />
    <path
       sodipodi:type="star"
       style="opacity:0.44497609;color:#000000;fill:#000080;fill-opacity:1;fill-rule:evenodd;stroke:none;stroke-width:3;marker:none;visibility:visible;display:inline;overflow:visible;enable-background:accumulate"
       id="path5421-5-1"
       sodipodi:sides="6"
       sodipodi:cx="548.5"
       sodipodi:cy="3909.5"
       sodipodi:r1="6.1502032"
       sodipodi:r2="61.502033"
       sodipodi:arg1="1.5789262"
       sodipodi:arg2="2.102525"
       inkscape:flatsided="false"
       inkscape:rounded="0.6"
       inkscape:randomized="0"
       d="m 548.45,3915.65 c -33.75483,-0.2744 -2.03769,63.9756 -31.13301,46.8606 -29.09533,-17.1151 42.4717,-20.6091 25.83195,-49.9789 C 526.50919,3883.1619 486.72557,3942.7548 487,3909 c 0.27443,-33.7548 39.08387,26.477 56.19894,-2.6183 17.11508,-29.0953 -54.38568,-33.7525 -25.01593,-50.3923 29.36975,-16.6397 -3.38784,47.0862 30.36699,47.3606 33.75483,0.2744 2.03769,-63.9756 31.13301,-46.8606 29.09533,17.1151 -42.4717,20.6091 -25.83195,49.9789 16.63975,29.3698 56.42337,-30.2231 56.14894,3.5317 -0.27443,33.7548 -39.08387,-26.477 -56.19894,2.6183 -17.11508,29.0953 54.38568,33.7525 25.01593,50.3923 -29.36975,16.6397 3.38784,-47.0862 -30.36699,-47.3606 z"
       inkscape:transform-center-y="-5.8317398"
       transform="matrix(0.97915944,0,0,0.99049764,-420.56842,-3608.1139)" />
    <path
       transform="matrix(0.97915944,0,0,0.99049764,-201.35869,-3608.1139)"
       inkscape:transform-center-y="-5.8317398"
       d="m 548.4,3921.8 c -30.73107,-0.2498 -4.59405,56.2925 -31.08301,40.7106 -26.48897,-15.5819 35.63006,-20.2084 20.4809,-46.9472 C 522.64872,3888.8246 486.75015,3939.7311 487,3909 c 0.24984,-30.7311 35.31598,20.7524 50.89789,-5.7366 15.58191,-26.489 -46.45369,-32.1248 -19.71488,-47.274 26.73881,-15.1491 -0.31408,40.9608 30.41699,41.2106 30.73107,0.2498 4.59405,-56.2925 31.08301,-40.7106 26.48897,15.5819 -35.63006,20.2084 -20.4809,46.9472 15.14917,26.7388 51.04774,-24.1677 50.79789,6.5634 -0.24984,30.7311 -35.31598,-20.7524 -50.89789,5.7366 -15.58191,26.489 46.45369,32.1248 19.71488,47.274 -26.73881,15.1491 0.31408,-40.9608 -30.41699,-41.2106 z"
       inkscape:randomized="0"
       inkscape:rounded="0.6"
       inkscape:flatsided="false"
       sodipodi:arg2="2.102525"
       sodipodi:arg1="1.5789262"
       sodipodi:r2="61.502033"
       sodipodi:r1="12.300407"
       sodipodi:cy="3909.5"
       sodipodi:cx="548.5"
       sodipodi:sides="6"
       id="path6565"
       style="opacity:0.44497609;color:#000000;fill:#000080;fill-opacity:1;fill-rule:evenodd;stroke:none;stroke-width:3;marker:none;visibility:visible;display:inline;overflow:visible;enable-background:accumulate"
       sodipodi:type="star" />
    <path
       sodipodi:type="star"
       style="opacity:0.44497609;color:#000000;fill:#000080;fill-opacity:1;fill-rule:evenodd;stroke:none;stroke-width:3;marker:none;visibility:visible;display:inline;overflow:visible;enable-background:accumulate"
       id="path6567"
       sodipodi:sides="6"
       sodipodi:cx="548.5"
       sodipodi:cy="3909.5"
       sodipodi:r1="18.450609"
       sodipodi:r2="61.502033"
       sodipodi:arg1="1.5789262"
       sodipodi:arg2="2.102525"
       inkscape:flatsided="false"
       inkscape:rounded="1"
       inkscape:randomized="0"
       d="m 548.35,3927.95 c -46.44715,-0.3776 9.00259,58.1112 -31.03301,34.5606 -40.03561,-23.5506 38.02639,-3.5023 15.12984,-43.9155 C 509.55028,3878.1819 486.62238,3955.4472 487,3909 c 0.37762,-46.4472 22.04623,31.1807 45.59683,-8.8549 23.5506,-40.0356 -54.82704,-21.2591 -14.41382,-44.1557 40.41322,-22.8965 -15.98016,34.683 30.46699,35.0606 46.44715,0.3776 -9.00259,-58.1112 31.03301,-34.5606 40.03561,23.5506 -38.02639,3.5023 -15.12984,43.9155 22.89655,40.4132 45.82445,-36.8521 45.44683,9.5951 -0.37762,46.4472 -22.04623,-31.1807 -45.59683,8.8549 -23.5506,40.0356 54.82704,21.2591 14.41382,44.1557 -40.41322,22.8965 15.98016,-34.683 -30.46699,-35.0606 z"
       inkscape:transform-center-y="-5.8317398"
       transform="matrix(0.97915944,0,0,0.99049764,10.571274,-3608.1139)" />
    <path
       transform="matrix(0.97915944,0,0,0.99049764,219.671,-3608.1139)"
       inkscape:transform-center-y="-5.8317398"
       d="m 548.3,3934.1 c -63.05338,-0.5126 23.3665,60.3812 -30.98301,28.4106 -54.34952,-31.9707 40.86152,13.9783 9.77879,-40.8838 C 496.01304,3866.7647 486.48737,3972.0534 487,3909 c 0.51263,-63.0534 8.32514,42.3763 40.29577,-11.9732 31.97064,-54.3495 -63.9749,-9.9546 -9.11276,-41.0374 54.86214,-31.0827 -32.53639,28.398 30.51699,28.9106 63.05338,0.5126 -23.3665,-60.3812 30.98301,-28.4106 54.34952,31.9707 -40.86152,-13.9783 -9.77879,40.8838 31.08274,54.8621 40.60841,-50.4266 40.09578,12.6268 -0.51263,63.0534 -8.32514,-42.3763 -40.29577,11.9732 -31.97064,54.3495 63.9749,9.9546 9.11276,41.0374 -54.86214,31.0827 32.53639,-28.398 -30.51699,-28.9106 z"
       inkscape:randomized="0"
       inkscape:rounded="1.5"
       inkscape:flatsided="false"
       sodipodi:arg2="2.102525"
       sodipodi:arg1="1.5789262"
       sodipodi:r2="61.502033"
       sodipodi:r1="24.600813"
       sodipodi:cy="3909.5"
       sodipodi:cx="548.5"
       sodipodi:sides="6"
       id="path6569"
       style="opacity:0.44497609;color:#000000;fill:#000080;fill-opacity:1;fill-rule:evenodd;stroke:none;stroke-width:3;marker:none;visibility:visible;display:inline;overflow:visible;enable-background:accumulate"
       sodipodi:type="star" />
    <path
       transform="matrix(0.97915944,0,0,0.99049764,417.79021,-3431.505)"
       inkscape:transform-center-y="-5.8317398"
       d="m 548.2,3946.4 c 139.32584,1.1327 -150.97637,-54.5333 -30.88301,16.1106 120.09335,70.6439 -69.60527,-156.0465 -0.92333,-34.8204 C 585.07561,4048.9163 488.13273,3769.6742 487,3909 c -1.13273,139.3258 100.33755,-138.3032 29.69366,-18.2098 -70.64389,120.0933 122.71543,-103.4827 1.48935,-34.8008 -121.22607,68.682 169.94282,17.7433 30.61699,16.6106 -139.32584,-1.1327 150.97637,54.5333 30.88301,-16.1106 -120.09335,-70.6439 69.60527,156.0465 0.92333,34.8204 C 511.92439,3770.0837 608.86727,4049.3258 610,3910 c 1.13273,-139.3258 -100.33755,138.3032 -29.69366,18.2098 70.64389,-120.0933 -122.71543,103.4827 -1.48935,34.8008 C 700.04306,3894.3286 408.87417,3945.2673 548.2,3946.4 z"
       inkscape:randomized="0"
       inkscape:rounded="-4"
       inkscape:flatsided="false"
       sodipodi:arg2="2.102525"
       sodipodi:arg1="1.5789262"
       sodipodi:r2="61.502033"
       sodipodi:r1="36.901218"
       sodipodi:cy="3909.5"
       sodipodi:cx="548.5"
       sodipodi:sides="6"
       id="path6599"
       style="opacity:0.44497609;color:#000000;fill:#000080;fill-opacity:1;fill-rule:evenodd;stroke:none;stroke-width:3;marker:none;visibility:visible;display:inline;overflow:visible;enable-background:accumulate"
       sodipodi:type="star" />
    <path
       sodipodi:type="star"
       style="opacity:0.44497609;color:#000000;fill:#000080;fill-opacity:1;fill-rule:evenodd;stroke:none;stroke-width:3;marker:none;visibility:visible;display:inline;overflow:visible;enable-background:accumulate"
       id="path6601"
       sodipodi:sides="6"
       sodipodi:cx="548.5"
       sodipodi:cy="3909.5"
       sodipodi:r1="36.901218"
       sodipodi:r2="61.502033"
       sodipodi:arg1="1.5789262"
       sodipodi:arg2="2.102525"
       inkscape:flatsided="false"
       inkscape:rounded="-5"
       inkscape:randomized="0"
       d="m 548.2,3946.4 c 174.1573,1.4159 -180.99971,-72.1943 -30.88301,16.1106 150.11668,88.3048 -86.77576,-186.353 -0.92333,-34.8204 C 602.2461,4079.2228 488.41591,3734.8427 487,3909 c -1.41591,174.1573 117.99853,-168.3265 29.69366,-18.2098 -88.30486,150.1167 153.02195,-120.6532 1.48935,-34.8008 -151.53259,85.8525 204.77428,18.0265 30.61699,16.6106 -174.1573,-1.4159 180.99971,72.1943 30.88301,-16.1106 -150.11668,-88.3048 86.77576,186.353 0.92333,34.8204 C 494.7539,3739.7772 608.58409,4084.1573 610,3910 c 1.41591,-174.1573 -117.99853,168.3265 -29.69366,18.2098 88.30486,-150.1167 -153.02195,120.6532 -1.48935,34.8008 C 730.34958,3877.1581 374.04271,3944.9841 548.2,3946.4 z"
       inkscape:transform-center-y="-5.8317398"
       transform="matrix(0.97915944,0,0,0.99049764,620.37156,-3431.505)" />
    <path
       transform="matrix(0.97915944,0,0,0.99049764,-420.56842,-3431.505)"
       inkscape:transform-center-y="-5.8317398"
       d="m 548.2,3946.4 c 20.89888,0.1699 -48.89702,5.514 -30.88301,16.1106 18.014,10.5965 -11.22562,-53.0043 -0.92333,-34.8204 C 526.69596,3945.8741 487.16991,3888.1011 487,3909 c -0.16991,20.8989 40.29025,-36.2238 29.69366,-18.2098 -10.59658,18.014 19.67326,-45.1031 1.48935,-34.8008 -18.18391,10.3023 51.51586,16.7805 30.61699,16.6106 -20.89888,-0.1699 48.89702,-5.514 30.88301,-16.1106 -18.014,-10.5965 11.22562,53.0043 0.92333,34.8204 -10.3023,-18.1839 29.22375,39.5891 29.39366,18.6902 0.16991,-20.8989 -40.29025,36.2238 -29.69366,18.2098 10.59658,-18.014 -19.67326,45.1031 -1.48935,34.8008 C 597.0009,3952.7083 527.30113,3946.2301 548.2,3946.4 z"
       inkscape:randomized="0"
       inkscape:rounded="-0.6"
       inkscape:flatsided="false"
       sodipodi:arg2="2.102525"
       sodipodi:arg1="1.5789262"
       sodipodi:r2="61.502033"
       sodipodi:r1="36.901218"
       sodipodi:cy="3909.5"
       sodipodi:cx="548.5"
       sodipodi:sides="6"
       id="path6573-8"
       style="opacity:0.44497609;color:#000000;fill:#000080;fill-opacity:1;fill-rule:evenodd;stroke:none;stroke-width:3;marker:none;visibility:visible;display:inline;overflow:visible;enable-background:accumulate"
       sodipodi:type="star" />
    <path
       sodipodi:type="star"
       style="opacity:0.44497609;color:#000000;fill:#000080;fill-opacity:1;fill-rule:evenodd;stroke:none;stroke-width:3;marker:none;visibility:visible;display:inline;overflow:visible;enable-background:accumulate"
       id="path6593"
       sodipodi:sides="6"
       sodipodi:cx="548.5"
       sodipodi:cy="3909.5"
       sodipodi:r1="36.901218"
       sodipodi:r2="61.502033"
       sodipodi:arg1="1.5789262"
       sodipodi:arg2="2.102525"
       inkscape:flatsided="false"
       inkscape:rounded="-1"
       inkscape:randomized="0"
       d="m 548.2,3946.4 c 34.83146,0.2832 -60.90635,-1.5504 -30.88301,16.1106 30.02333,17.6609 -18.09381,-65.1269 -0.92333,-34.8204 C 533.56415,3957.9967 487.28318,3874.1685 487,3909 c -0.28318,34.8315 47.35464,-48.2331 29.69366,-18.2098 -17.66097,30.0233 31.79587,-51.9713 1.48935,-34.8008 -30.30652,17.1705 65.44845,16.8938 30.61699,16.6106 -34.83146,-0.2832 60.90635,1.5504 30.88301,-16.1106 -30.02333,-17.6609 18.09381,65.1269 0.92333,34.8204 -17.17049,-30.3065 29.11048,53.5217 29.39366,18.6902 0.28318,-34.8315 -47.35464,48.2331 -29.69366,18.2098 17.66097,-30.0233 -31.79587,51.9713 -1.48935,34.8008 C 609.12351,3945.8401 513.36854,3946.1168 548.2,3946.4 z"
       inkscape:transform-center-y="-5.8317398"
       transform="matrix(0.97915944,0,0,0.99049764,-201.35869,-3431.505)" />
    <path
       transform="matrix(0.97915944,0,0,0.99049764,10.571274,-3431.505)"
       inkscape:transform-center-y="-5.8317398"
       d="m 548.2,3946.4 c 69.66292,0.5664 -90.92969,-19.2114 -30.88301,16.1106 60.04667,35.3219 -35.2643,-95.4334 -0.92333,-34.8204 34.34098,60.613 -28.8273,-88.3531 -29.39366,-18.6902 -0.56636,69.6629 65.01561,-78.2565 29.69366,-18.2098 -35.32194,60.0467 62.10239,-69.1417 1.48935,-34.8008 -60.61304,34.341 100.27991,17.177 30.61699,16.6106 -69.66292,-0.5664 90.92969,19.2114 30.88301,-16.1106 -60.04667,-35.3219 35.2643,95.4334 0.92333,34.8204 -34.34098,-60.613 28.8273,88.3531 29.39366,18.6902 0.56636,-69.6629 -65.01561,78.2565 -29.69366,18.2098 35.32194,-60.0467 -62.10239,69.1417 -1.48935,34.8008 60.61304,-34.341 -100.27991,-17.177 -30.61699,-16.6106 z"
       inkscape:randomized="0"
       inkscape:rounded="-2"
       inkscape:flatsided="false"
       sodipodi:arg2="2.102525"
       sodipodi:arg1="1.5789262"
       sodipodi:r2="61.502033"
       sodipodi:r1="36.901218"
       sodipodi:cy="3909.5"
       sodipodi:cx="548.5"
       sodipodi:sides="6"
       id="path6595"
       style="opacity:0.44497609;color:#000000;fill:#000080;fill-opacity:1;fill-rule:evenodd;stroke:none;stroke-width:3;marker:none;visibility:visible;display:inline;overflow:visible;enable-background:accumulate"
       sodipodi:type="star" />
    <path
       sodipodi:type="star"
       style="opacity:0.44497609;color:#000000;fill:#000080;fill-opacity:1;fill-rule:evenodd;stroke:none;stroke-width:3;marker:none;visibility:visible;display:inline;overflow:visible;enable-background:accumulate"
       id="path6597"
       sodipodi:sides="6"
       sodipodi:cx="548.5"
       sodipodi:cy="3909.5"
       sodipodi:r1="36.901218"
       sodipodi:r2="61.502033"
       sodipodi:arg1="1.5789262"
       sodipodi:arg2="2.102525"
       inkscape:flatsided="false"
       inkscape:rounded="-3"
       inkscape:randomized="0"
       d="m 548.2,3946.4 c 104.49438,0.8495 -120.95303,-36.8724 -30.88301,16.1106 90.07001,52.9829 -52.43478,-125.74 -0.92333,-34.8204 C 567.90513,4018.6098 487.84954,3804.5056 487,3909 c -0.84955,104.4944 82.67658,-108.2798 29.69366,-18.2098 -52.98292,90.07 92.40891,-86.3122 1.48935,-34.8008 -90.91955,51.5115 135.11137,17.4601 30.61699,16.6106 -104.49438,-0.8495 120.95303,36.8724 30.88301,-16.1106 -90.07001,-52.9829 52.43478,125.74 0.92333,34.8204 C 529.09487,3800.3902 609.15046,4014.4944 610,3910 c 0.84955,-104.4944 -82.67658,108.2798 -29.69366,18.2098 52.98292,-90.07 -92.40891,86.3122 -1.48935,34.8008 C 669.73654,3911.4991 443.70562,3945.5505 548.2,3946.4 z"
       inkscape:transform-center-y="-5.8317398"
       transform="matrix(0.97915944,0,0,0.99049764,219.671,-3431.505)" />
    <path
       transform="matrix(0.97915944,0,0,0.99049764,417.79021,-3258.2618)"
       inkscape:transform-center-y="-5.8317398"
       d="m 548.25,3940.25 c 114.32669,0.9295 -129.47809,-35.7077 -30.93301,22.2606 98.54507,57.9683 -51.93066,-137.3267 4.42773,-37.8521 C 578.10311,4024.1331 487.92948,3794.6733 487,3909 c -0.92948,114.3267 92.96302,-113.6366 34.99472,-15.0915 -57.9683,98.5451 95.66285,-94.2775 -3.81171,-37.9191 -99.47455,56.3584 144.89368,23.6901 30.56699,22.7606 -114.32669,-0.9295 129.47809,35.7077 30.93301,-22.2606 -98.54507,-57.9683 51.93066,137.3267 -4.42773,37.8521 C 518.89689,3794.8669 609.07052,4024.3267 610,3910 c 0.92948,-114.3267 -92.96302,113.6366 -34.99472,15.0915 57.9683,-98.5451 -95.66285,94.2775 3.81171,37.9191 99.47455,-56.3584 -144.89368,-23.6901 -30.56699,-22.7606 z"
       inkscape:randomized="0"
       inkscape:rounded="-3"
       inkscape:flatsided="false"
       sodipodi:arg2="2.102525"
       sodipodi:arg1="1.5789262"
       sodipodi:r2="61.502033"
       sodipodi:r1="30.751017"
       sodipodi:cy="3909.5"
       sodipodi:cx="548.5"
       sodipodi:sides="6"
       id="path6675"
       style="opacity:0.44497609;color:#000000;fill:#000080;fill-opacity:1;fill-rule:evenodd;stroke:none;stroke-width:3;marker:none;visibility:visible;display:inline;overflow:visible;enable-background:accumulate"
       sodipodi:type="star" />
    <path
       sodipodi:type="star"
       style="opacity:0.44497609;color:#000000;fill:#000080;fill-opacity:1;fill-rule:evenodd;stroke:none;stroke-width:3;marker:none;visibility:visible;display:inline;overflow:visible;enable-background:accumulate"
       id="path6677"
       sodipodi:sides="6"
       sodipodi:cx="548.5"
       sodipodi:cy="3909.5"
       sodipodi:r1="43.051422"
       sodipodi:r2="61.502033"
       sodipodi:arg1="1.5789262"
       sodipodi:arg2="2.102525"
       inkscape:flatsided="false"
       inkscape:rounded="-3"
       inkscape:randomized="0"
       d="m 548.15,3952.55 c 97.2027,0.7903 -114.61788,-39.3252 -30.83301,9.9606 83.78486,49.2857 -54.19134,-116.3638 -6.27438,-31.7887 C 558.95956,4015.297 487.79026,3811.7973 487,3909 c -0.79026,97.2027 73.67834,-105.113 24.39261,-21.3281 -49.28574,83.7849 91.36554,-79.5994 6.7904,-31.6825 -84.57513,47.917 127.86968,11.2509 30.66699,10.4606 -97.2027,-0.7903 114.61788,39.3252 30.83301,-9.9606 -83.78486,-49.2857 54.19134,116.3638 6.27438,31.7887 C 538.04044,3803.703 609.20974,4007.2027 610,3910 c 0.79026,-97.2027 -73.67834,105.113 -24.39261,21.3281 49.28574,-83.7849 -91.36554,79.5994 -6.7904,31.6825 84.57513,-47.917 -127.86968,-11.2509 -30.66699,-10.4606 z"
       inkscape:transform-center-y="-5.8317398"
       transform="matrix(0.97915944,0,0,0.99049764,620.37156,-3258.2618)" />
    <path
       transform="matrix(0.97915944,0,0,0.99049764,-420.56842,-3258.2618)"
       inkscape:transform-center-y="-5.8317398"
       d="m 548.45,3915.65 c 168.77414,1.3721 -176.60963,-38.7148 -31.13301,46.8606 145.47662,85.5753 -57.3668,-196.8277 25.83195,-49.9789 C 626.3477,4059.3805 488.37214,3740.2259 487,3909 c -1.37214,168.7741 141.77433,-148.0949 56.19894,-2.6183 -85.57538,145.4766 121.83283,-133.591 -25.01593,-50.3923 -146.84876,83.1988 199.14113,48.7327 30.36699,47.3606 -168.77414,-1.3721 176.60963,38.7148 31.13301,-46.8606 -145.47662,-85.5753 57.3668,196.8277 -25.83195,49.9789 C 470.6523,3759.6195 608.62786,4078.7741 610,3910 c 1.37214,-168.7741 -141.77433,148.0949 -56.19894,2.6183 85.57538,-145.4766 -121.83283,133.591 25.01593,50.3923 C 725.66575,3879.8118 379.67586,3914.2779 548.45,3915.65 z"
       inkscape:randomized="0"
       inkscape:rounded="-3"
       inkscape:flatsided="false"
       sodipodi:arg2="2.102525"
       sodipodi:arg1="1.5789262"
       sodipodi:r2="61.502033"
       sodipodi:r1="6.1502032"
       sodipodi:cy="3909.5"
       sodipodi:cx="548.5"
       sodipodi:sides="6"
       id="path6681"
       style="opacity:0.44497609;color:#000000;fill:#000080;fill-opacity:1;fill-rule:evenodd;stroke:none;stroke-width:3;marker:none;visibility:visible;display:inline;overflow:visible;enable-background:accumulate"
       sodipodi:type="star" />
    <path
       sodipodi:type="star"
       style="opacity:0.44497609;color:#000000;fill:#000080;fill-opacity:1;fill-rule:evenodd;stroke:none;stroke-width:3;marker:none;visibility:visible;display:inline;overflow:visible;enable-background:accumulate"
       id="path6679"
       sodipodi:sides="6"
       sodipodi:cx="548.5"
       sodipodi:cy="3909.5"
       sodipodi:r1="12.300407"
       sodipodi:r2="61.502033"
       sodipodi:arg1="1.5789262"
       sodipodi:arg2="2.102525"
       inkscape:flatsided="false"
       inkscape:rounded="-3"
       inkscape:randomized="0"
       d="m 548.4,3921.8 c 153.65537,1.2492 -163.52785,-37.199 -31.08301,40.7106 132.44483,77.9095 -55.26492,-180.6413 20.4809,-46.9472 C 613.54371,4049.2575 488.24923,3755.3446 487,3909 c -1.24923,153.6554 128.80743,-138.1814 50.89789,-5.7366 -77.90955,132.4448 113.97919,-123.0198 -19.71488,-47.274 -133.69406,75.7459 184.07236,42.4598 30.41699,41.2106 -153.65537,-1.2492 163.52785,37.199 31.08301,-40.7106 -132.44483,-77.9095 55.26492,180.6413 -20.4809,46.9472 C 483.45629,3769.7425 608.75077,4063.6554 610,3910 c 1.24923,-153.6554 -128.80743,138.1814 -50.89789,5.7366 77.90955,-132.4448 -113.97919,123.0198 19.71488,47.274 C 712.51105,3887.2647 394.74463,3920.5508 548.4,3921.8 z"
       inkscape:transform-center-y="-5.8317398"
       transform="matrix(0.97915944,0,0,0.99049764,-201.35869,-3258.2618)" />
    <path
       transform="matrix(0.97915944,0,0,0.99049764,10.571274,-3258.2618)"
       inkscape:transform-center-y="-5.8317398"
       d="m 548.35,3927.95 c 139.34146,1.1329 -151.13983,-36.0912 -31.03301,34.5606 120.10681,70.6518 -53.5598,-165.1552 15.12984,-43.9155 C 601.13648,4039.8348 488.13285,3769.6585 487,3909 c -1.13285,139.3415 116.24864,-128.9617 45.59683,-8.8549 -70.65181,120.1068 106.82585,-112.8453 -14.41382,-44.1557 -121.23966,68.6897 169.80844,36.1935 30.46699,35.0606 -139.34146,-1.1329 151.13983,36.0912 31.03301,-34.5606 -120.10681,-70.6518 53.5598,165.1552 -15.12984,43.9155 C 495.86352,3779.1652 608.86715,4049.3415 610,3910 c 1.13285,-139.3415 -116.24864,128.9617 -45.59683,8.8549 70.65181,-120.1068 -106.82585,112.8453 14.41382,44.1557 C 700.05665,3894.3209 409.00855,3926.8171 548.35,3927.95 z"
       inkscape:randomized="0"
       inkscape:rounded="-3"
       inkscape:flatsided="false"
       sodipodi:arg2="2.102525"
       sodipodi:arg1="1.5789262"
       sodipodi:r2="61.502033"
       sodipodi:r1="18.450609"
       sodipodi:cy="3909.5"
       sodipodi:cx="548.5"
       sodipodi:sides="6"
       id="path6671"
       style="opacity:0.44497609;color:#000000;fill:#000080;fill-opacity:1;fill-rule:evenodd;stroke:none;stroke-width:3;marker:none;visibility:visible;display:inline;overflow:visible;enable-background:accumulate"
       sodipodi:type="star" />
    <path
       sodipodi:type="star"
       style="opacity:0.44497609;color:#000000;fill:#000080;fill-opacity:1;fill-rule:evenodd;stroke:none;stroke-width:3;marker:none;visibility:visible;display:inline;overflow:visible;enable-background:accumulate"
       id="path6673"
       sodipodi:sides="6"
       sodipodi:cx="548.5"
       sodipodi:cy="3909.5"
       sodipodi:r1="24.600813"
       sodipodi:r2="61.502033"
       sodipodi:arg1="1.5789262"
       sodipodi:arg2="2.102525"
       inkscape:flatsided="false"
       inkscape:rounded="-3"
       inkscape:randomized="0"
       d="m 548.3,3934.1 c 126.10676,1.0253 -139.68204,-35.5307 -30.98301,28.4106 108.69902,63.9412 -52.38669,-150.6081 9.77879,-40.8838 C 589.26125,4031.3511 488.02525,3782.8932 487,3909 c -1.02526,126.1068 104.23705,-120.6722 40.29577,-11.9732 -63.94127,108.699 100.61152,-103.2028 -9.11276,-41.0374 -109.72428,62.1655 156.62374,29.9359 30.51699,28.9106 -126.10676,-1.0253 139.68204,35.5307 30.98301,-28.4106 -108.69902,-63.9412 52.38669,150.6081 -9.77879,40.8838 C 507.73875,3787.6489 608.97475,4036.1068 610,3910 c 1.02526,-126.1068 -104.23705,120.6722 -40.29577,11.9732 63.94127,-108.699 -100.61152,103.2028 9.11276,41.0374 C 688.54127,3900.8451 422.19325,3933.0747 548.3,3934.1 z"
       inkscape:transform-center-y="-5.8317398"
       transform="matrix(0.97915944,0,0,0.99049764,219.671,-3258.2618)" />
    <path
       sodipodi:type="star"
       style="opacity:0.44497609;color:#000000;fill:#000080;fill-opacity:1;fill-rule:evenodd;stroke:none;stroke-width:3;marker:none;visibility:visible;display:inline;overflow:visible;enable-background:accumulate"
       id="path6677-2"
       sodipodi:sides="6"
       sodipodi:cx="548.5"
       sodipodi:cy="3909.5"
       sodipodi:r1="12.300407"
       sodipodi:r2="61.502033"
       sodipodi:arg1="1.5789262"
       sodipodi:arg2="2.102525"
       inkscape:flatsided="false"
       inkscape:rounded="3"
       inkscape:randomized="0"
       d="m 548.4,3921.8 c -153.65537,-1.2492 101.36182,118.6201 -31.08301,40.7106 -132.44484,-77.9096 96.22671,86.7469 20.4809,-46.9472 C 462.05207,3781.8693 485.75077,4062.6554 487,3909 c 1.24923,-153.6554 -27.01166,126.7082 50.89789,-5.7366 77.90954,-132.4448 -153.40894,28.4719 -19.71488,-47.274 133.69407,-75.7458 -123.23838,39.9614 30.41699,41.2106 153.65537,1.2492 -101.36182,-118.6201 31.08301,-40.7106 132.44484,77.9096 -96.22671,-86.7469 -20.4809,46.9472 75.74582,133.6941 52.04712,-147.092 50.79789,6.5634 -1.24923,153.6554 27.01166,-126.7082 -50.89789,5.7366 -77.90954,132.4448 153.40894,-28.4719 19.71488,47.274 C 445.12292,4038.7564 702.05537,3923.0492 548.4,3921.8 z"
       inkscape:transform-center-y="-5.8317398"
       transform="matrix(0.97915944,0,0,0.99049764,417.79021,-3076.6852)" />
    <path
       sodipodi:type="star"
       style="opacity:0.44497609;color:#000000;fill:#000080;fill-opacity:1;fill-rule:evenodd;stroke:none;stroke-width:3;marker:none;visibility:visible;display:inline;overflow:visible;enable-background:accumulate"
       id="path6677-0"
       sodipodi:sides="6"
       sodipodi:cx="548.5"
       sodipodi:cy="3909.5"
       sodipodi:r1="18.450609"
       sodipodi:r2="61.502033"
       sodipodi:arg1="1.5789262"
       sodipodi:arg2="2.102525"
       inkscape:flatsided="false"
       inkscape:rounded="2"
       inkscape:randomized="0"
       d="m 548.35,3927.95 c -92.8943,-0.7552 49.0382,81.6618 -31.03301,34.5606 -80.07121,-47.1012 60.92294,36.9109 15.12984,-43.9155 C 486.65374,3837.7687 486.24476,4001.8943 487,3909 c 0.75523,-92.8943 -1.50437,71.2163 45.59683,-8.8549 47.10121,-80.0712 -95.24026,1.6374 -14.41382,-44.1557 80.82645,-45.7931 -62.42731,34.3054 30.46699,35.0606 92.8943,0.7552 -49.0382,-81.6618 31.03301,-34.5606 80.07121,47.1012 -60.92294,-36.9109 -15.12984,43.9155 45.79309,80.8264 46.20207,-83.2992 45.44683,9.5951 -0.75523,92.8943 1.50437,-71.2163 -45.59683,8.8549 -47.10121,80.0712 95.24026,-1.6374 14.41382,44.1557 -80.82645,45.7931 62.42731,-34.3054 -30.46699,-35.0606 z"
       inkscape:transform-center-y="-5.8317398"
       transform="matrix(0.97915944,0,0,0.99049764,620.37156,-3076.6852)" />
    <path
       sodipodi:type="star"
       style="opacity:0.44497609;color:#000000;fill:#000080;fill-opacity:1;fill-rule:evenodd;stroke:none;stroke-width:3;marker:none;visibility:visible;display:inline;overflow:visible;enable-background:accumulate"
       id="path6677-7"
       sodipodi:sides="6"
       sodipodi:cx="548.5"
       sodipodi:cy="3909.5"
       sodipodi:r1="49.201626"
       sodipodi:r2="61.502033"
       sodipodi:arg1="1.5789262"
       sodipodi:arg2="2.102525"
       inkscape:flatsided="false"
       inkscape:rounded="-3"
       inkscape:randomized="0"
       d="m 548.1,3958.7 c 93.05083,0.7565 -110.98914,-43.37 -30.78301,3.8106 80.20612,47.1805 -57.49569,-109.7196 -11.62544,-28.757 C 551.56181,4014.7162 487.75651,3815.9492 487,3909 c -0.75651,93.0508 66.27212,-104.6525 19.09155,-24.4464 -47.18057,80.2061 93.0541,-74.4344 12.09146,-28.5642 -80.96263,45.8703 123.76781,5.0671 30.71699,4.3106 -93.05083,-0.7565 110.98914,43.37 30.78301,-3.8106 -80.20612,-47.1805 57.49569,109.7196 11.62544,28.757 C 545.43819,3804.2838 609.24349,4003.0508 610,3910 c 0.75651,-93.0508 -66.27212,104.6525 -19.09155,24.4464 47.18057,-80.2061 -93.0541,74.4344 -12.09146,28.5642 80.96263,-45.8703 -123.76781,-5.0671 -30.71699,-4.3106 z"
       inkscape:transform-center-y="-5.8317398"
       transform="matrix(0.97915944,0,0,0.99049764,-420.56842,-3076.6852)" />
    <path
       sodipodi:type="star"
       style="opacity:0.44497609;color:#000000;fill:#000080;fill-opacity:1;fill-rule:evenodd;stroke:none;stroke-width:3;marker:none;visibility:visible;display:inline;overflow:visible;enable-background:accumulate"
       id="path6677-4"
       sodipodi:sides="6"
       sodipodi:cx="548.5"
       sodipodi:cy="3909.5"
       sodipodi:r1="55.35183"
       sodipodi:r2="61.502033"
       sodipodi:arg1="1.5789262"
       sodipodi:arg2="2.102525"
       inkscape:flatsided="false"
       inkscape:rounded="-3"
       inkscape:randomized="0"
       d="m 548.05,3964.85 c 92.46272,0.7517 -110.43222,-49.2218 -30.73301,-2.3394 79.69919,46.8823 -62.55684,-106.1762 -16.9765,-25.7253 C 545.92084,4017.2362 487.75173,3816.5373 487,3909 c -0.75173,92.4627 60.67287,-107.2639 13.79049,-27.5647 -46.88238,79.6992 97.84345,-71.0262 17.39252,-25.4459 -80.45092,45.5804 123.2297,-1.0877 30.76699,-1.8394 -92.46272,-0.7517 110.43222,49.2218 30.73301,2.3394 -79.69919,-46.8823 62.55684,106.1762 16.9765,25.7253 -45.58035,-80.4509 12.58876,120.248 13.34049,27.7853 0.75173,-92.4627 -60.67287,107.2639 -13.79049,27.5647 46.88238,-79.6992 -97.84345,71.0262 -17.39252,25.4459 80.45092,-45.5804 -123.2297,1.0877 -30.76699,1.8394 z"
       inkscape:transform-center-y="-5.8317398"
       transform="matrix(0.97915944,0,0,0.99049764,-201.35869,-3076.6852)" />
    <path
       sodipodi:type="star"
       style="opacity:0.44497609;color:#000000;fill:#000080;fill-opacity:1;fill-rule:evenodd;stroke:none;stroke-width:3;marker:none;visibility:visible;display:inline;overflow:visible;enable-background:accumulate"
       id="path6677-6"
       sodipodi:sides="6"
       sodipodi:cx="548.5"
       sodipodi:cy="3909.5"
       sodipodi:r1="61.502033"
       sodipodi:r2="61.502033"
       sodipodi:arg1="1.5789262"
       sodipodi:arg2="2.102525"
       inkscape:flatsided="false"
       inkscape:rounded="-3"
       inkscape:randomized="0"
       d="m 548,3971 c 95.50423,0.7765 -113.00388,-56.914 -30.68301,-8.4894 82.32085,48.4245 -69.40723,-105.7909 -22.32755,-22.6936 47.07968,83.0973 -7.21299,-126.3212 -7.98944,-30.817 -0.77646,95.5042 56.91398,-113.0039 8.48944,-30.683 -48.42455,82.3209 105.79089,-69.4073 22.69357,-22.3276 C 435.0857,3903.0691 644.50422,3848.7765 549,3848 c -95.50423,-0.7765 113.00388,56.914 30.68301,8.4894 -82.32085,-48.4245 69.40723,105.7909 22.32755,22.6936 -47.07968,-83.0973 7.21299,126.3212 7.98944,30.817 0.77646,-95.5042 -56.91398,113.0039 -8.48944,30.683 48.42455,-82.3209 -105.79089,69.4073 -22.69357,22.3276 C 661.9143,3915.9309 452.49578,3970.2235 548,3971 z"
       inkscape:transform-center-y="-5.8317398"
       transform="matrix(0.97915944,0,0,0.99049764,10.571274,-3076.6852)" />
    <path
       sodipodi:type="star"
       style="opacity:0.44497609;color:#000000;fill:#000080;fill-opacity:1;fill-rule:evenodd;stroke:none;stroke-width:3;marker:none;visibility:visible;display:inline;overflow:visible;enable-background:accumulate"
       id="path6677-8"
       sodipodi:sides="6"
       sodipodi:cx="548.5"
       sodipodi:cy="3909.5"
       sodipodi:r1="6.1502032"
       sodipodi:r2="61.502033"
       sodipodi:arg1="1.5789262"
       sodipodi:arg2="2.102525"
       inkscape:flatsided="false"
       inkscape:rounded="-6"
       inkscape:randomized="0"
       d="m 548.45,3915.65 c 337.54827,2.7443 -322.08625,-124.2902 -31.13301,46.8606 290.95323,171.1507 -140.56555,-343.6764 25.83195,-49.9789 C 709.54645,4206.2292 489.74428,3571.4517 487,3909 c -2.74429,337.5483 227.34971,-293.5715 56.19894,-2.6183 -171.15076,290.9532 268.68159,-216.7898 -25.01593,-50.3923 -293.69752,166.3976 367.91526,50.1049 30.36699,47.3606 -337.54827,-2.7443 322.08625,124.2902 31.13301,-46.8606 -290.95323,-171.1507 140.56555,343.6764 -25.83195,49.9789 -166.39751,-293.6975 53.40466,341.08 56.14894,3.5317 2.74429,-337.5483 -227.34971,293.5715 -56.19894,2.6183 171.15076,-290.9532 -268.68159,216.7898 25.01593,50.3923 C 872.51451,3796.613 210.90173,3912.9057 548.45,3915.65 z"
       inkscape:transform-center-y="-4.3660846"
       transform="matrix(0.69680426,0,0,0.74157017,374.54283,-2103.5032)" />
    <path
       sodipodi:type="star"
       style="opacity:0.44497609;color:#000000;fill:#000080;fill-opacity:1;fill-rule:evenodd;stroke:none;stroke-width:3;marker:none;visibility:visible;display:inline;overflow:visible;enable-background:accumulate"
       id="path6601-2"
       sodipodi:sides="6"
       sodipodi:cx="548.5"
       sodipodi:cy="3909.5"
       sodipodi:r1="36.901218"
       sodipodi:r2="61.502033"
       sodipodi:arg1="1.5789262"
       sodipodi:arg2="2.102525"
       inkscape:flatsided="false"
       inkscape:rounded="-6"
       inkscape:randomized="0"
       d="m 548.2,3946.4 c 208.98876,1.6991 -211.02305,-89.8553 -30.88301,16.1106 180.14002,105.9658 -103.94624,-216.6595 -0.92333,-34.8204 C 619.41659,4109.5293 488.69909,3700.0112 487,3909 c -1.69909,208.9888 135.6595,-198.3498 29.69366,-18.2098 -105.96584,180.14 183.32847,-137.8237 1.48935,-34.8008 -181.83911,103.023 239.60574,18.3097 30.61699,16.6106 -208.98876,-1.6991 211.02305,89.8553 30.88301,-16.1106 -180.14002,-105.9658 103.94624,216.6595 0.92333,34.8204 C 477.58341,3709.4707 608.30091,4118.9888 610,3910 c 1.69909,-208.9888 -135.6595,198.3498 -29.69366,18.2098 105.96584,-180.14 -183.32847,137.8237 -1.48935,34.8008 C 760.6561,3859.9876 339.21125,3944.7009 548.2,3946.4 z"
       inkscape:transform-center-y="-5.8317398"
       transform="matrix(0.97915944,0,0,0.99049764,417.79021,-2859.6471)" />
    <path
       transform="matrix(0.83972342,0,0,0.87439302,696.85221,-2405.7361)"
       inkscape:transform-center-y="-5.1481028"
       d="m 548.2,3946.4 c 348.31461,2.8318 -331.1164,-160.4992 -30.88301,16.1106 C 817.55036,4139.1203 344.6888,3624.625 516.39366,3927.6902 688.09853,4230.7554 489.83182,3560.6854 487,3909 c -2.83182,348.3146 206.30339,-318.4432 29.69366,-18.2098 -176.60973,300.2334 304.55456,-206.5056 1.48935,-34.8008 -303.06519,171.7049 378.93158,19.4424 30.61699,16.6106 -348.31461,-2.8318 331.1164,160.4992 30.88301,-16.1106 -300.23337,-176.6097 172.62819,337.8856 0.92333,34.8204 C 408.90147,3588.2446 607.16818,4258.3146 610,3910 c 2.83182,-348.3146 -206.30339,318.4432 -29.69366,18.2098 176.60973,-300.2334 -304.55456,206.5056 -1.48935,34.8008 C 881.88218,3791.3057 199.88541,3943.5682 548.2,3946.4 z"
       inkscape:randomized="0"
       inkscape:rounded="-10"
       inkscape:flatsided="false"
       sodipodi:arg2="2.102525"
       sodipodi:arg1="1.5789262"
       sodipodi:r2="61.502033"
       sodipodi:r1="36.901218"
       sodipodi:cy="3909.5"
       sodipodi:cx="548.5"
       sodipodi:sides="6"
       id="path6621"
       style="opacity:0.44497609;color:#000000;fill:#000080;fill-opacity:1;fill-rule:evenodd;stroke:none;stroke-width:3;marker:none;visibility:visible;display:inline;overflow:visible;enable-background:accumulate"
       sodipodi:type="star" />
    <path
       sodipodi:type="star"
       style="opacity:0.44497609;color:#000000;fill:#000080;fill-opacity:1;fill-rule:evenodd;stroke:none;stroke-width:3;marker:none;visibility:visible;display:inline;overflow:visible;enable-background:accumulate"
       id="path6677-0-2"
       sodipodi:sides="6"
       sodipodi:cx="548.5"
       sodipodi:cy="3909.5"
       sodipodi:r1="151.08229"
       sodipodi:r2="61.502033"
       sodipodi:arg1="-0.16935867"
       sodipodi:arg2="0.35424013"
       inkscape:flatsided="false"
       inkscape:rounded="-6"
       inkscape:randomized="3.469447e-18"
       d="m 697.42077,3884.035 c -103.69844,-606.4354 -304.64963,623.8364 -91.23738,46.7987 213.41225,-577.0378 -434.50902,487.9262 38.83029,94.903 473.33932,-393.0232 -692.582986,48.0839 -86.1475,-55.6146 606.43552,-103.6984 -639.811008,-132.3327 -62.77327,81.0795 577.03779,213.4123 -387.93336,-575.7525 5.08988,-102.4132 393.02322,473.3393 -205.30199,-620.2589 -101.60356,-13.8234 103.69844,606.4354 304.64963,-623.8364 91.23738,-46.7987 -213.41225,577.0378 434.50902,-487.9262 -38.83029,-94.903 -473.339323,393.0232 692.58298,-48.0839 86.1475,55.6146 -606.435473,103.6984 639.81098,132.3327 62.77327,-81.0795 -577.037759,-213.4123 387.93336,575.7525 -5.08988,102.4132 -393.02322,-473.3393 205.30199,620.2589 101.60356,13.8234 z"
       inkscape:transform-center-y="-2.7024777"
       transform="matrix(0.45375714,-0.1655537,0.16747073,0.45901143,-787.11208,-690.99554)"
       inkscape:transform-center-x="0.98603285" />
    <path
       sodipodi:type="star"
       style="opacity:0.44497609;color:#000000;fill:#000080;fill-opacity:1;fill-rule:evenodd;stroke:none;stroke-width:3;marker:none;visibility:visible;display:inline;overflow:visible;enable-background:accumulate"
       id="path6677-0-6"
       sodipodi:sides="6"
       sodipodi:cx="548.5"
       sodipodi:cy="3909.5"
       sodipodi:r1="36.901218"
       sodipodi:r2="61.502033"
       sodipodi:arg1="1.5789262"
       sodipodi:arg2="2.102525"
       inkscape:flatsided="false"
       inkscape:rounded="6"
       inkscape:randomized="0"
       d="m 548.2,3946.4 c -208.98876,-1.6991 149.25702,122.0764 -30.88301,16.1106 -180.14003,-105.9659 102.09959,147.0187 -0.92333,-34.8204 C 413.37074,3745.8511 485.30091,4117.9888 487,3909 c 1.69909,-208.9888 -76.27217,161.9302 29.69366,-18.2098 105.96584,-180.14 -180.34977,68.2222 1.48935,-34.8008 181.83912,-103.0229 -178.37176,14.9115 30.61699,16.6106 208.98876,1.6991 -149.25702,-122.0764 30.88301,-16.1106 180.14003,105.9659 -102.09959,-147.0187 0.92333,34.8204 C 683.62926,4073.1489 611.69909,3701.0112 610,3910 c -1.69909,208.9888 76.27217,-161.9302 -29.69366,18.2098 -105.96584,180.14 180.34977,-68.2222 -1.48935,34.8008 C 396.97787,4066.0335 757.18875,3948.0991 548.2,3946.4 z"
       inkscape:transform-center-y="-5.8317398"
       transform="matrix(0.97915944,0,0,0.99049764,-201.35869,-2859.6471)" />
    <path
       sodipodi:type="star"
       style="opacity:0.44497609;color:#000000;fill:#000080;fill-opacity:1;fill-rule:evenodd;stroke:none;stroke-width:3;marker:none;visibility:visible;display:inline;overflow:visible;enable-background:accumulate"
       id="path6677-0-25"
       sodipodi:sides="6"
       sodipodi:cx="548.5"
       sodipodi:cy="3909.5"
       sodipodi:r1="6.1502032"
       sodipodi:r2="61.502033"
       sodipodi:arg1="1.5789262"
       sodipodi:arg2="2.102525"
       inkscape:flatsided="false"
       inkscape:rounded="-10"
       inkscape:randomized="0"
       d="m 548.45,3915.65 c 562.5805,4.5738 -516.055074,-238.3907 -31.13301,46.8606 484.92201,285.2512 -251.49723,-539.4748 25.83195,-49.9789 C 820.47812,4402.0276 491.57381,3346.4195 487,3909 c -4.57381,562.5805 341.45022,-487.5404 56.19894,-2.6183 -285.25127,484.9221 464.47996,-327.7215 -25.01593,-50.3923 -489.495866,277.3292 592.94749,51.9344 30.36699,47.3606 -562.580455,-4.5738 516.0551,238.3907 31.13301,-46.8606 -484.922057,-285.2512 251.49723,539.4748 -25.83195,49.9789 C 276.52188,3416.9724 605.42619,4472.5805 610,3910 c 4.57381,-562.5805 -341.45022,487.5404 -56.19894,2.6183 285.25127,-484.9221 -464.479942,327.7215 25.01593,50.3923 C 1068.3129,3685.6814 -14.130453,3911.0762 548.45,3915.65 z"
       inkscape:transform-center-y="-3.0901221"
       transform="matrix(0.51883704,0,0,0.52484492,263.05811,-1039.1778)" />
    <path
       sodipodi:type="star"
       style="opacity:0.44497609;color:#000000;fill:#000080;fill-opacity:1;fill-rule:evenodd;stroke:none;stroke-width:3;marker:none;visibility:visible;display:inline;overflow:visible;enable-background:accumulate"
       id="path6677-0-4"
       sodipodi:sides="6"
       sodipodi:cx="548.5"
       sodipodi:cy="3909.5"
       sodipodi:r1="18.450609"
       sodipodi:r2="61.502033"
       sodipodi:arg1="1.5789262"
       sodipodi:arg2="2.102525"
       inkscape:flatsided="false"
       inkscape:rounded="10"
       inkscape:randomized="0"
       d="m 548.35,3927.95 c -464.471515,-3.7762 369.32303,270.0666 -31.03301,34.5606 -400.35604,-235.5061 244.09532,360.2167 15.12984,-43.9155 C 303.48135,3514.4629 483.22382,4373.4715 487,3909 c 3.77618,-464.4715 -189.9092,391.5011 45.59683,-8.8549 235.50603,-400.356 -418.54604,184.8098 -14.41382,-44.1557 404.13222,-228.9655 -434.00452,31.2844 30.46699,35.0606 464.4715,3.7762 -369.32303,-270.0666 31.03301,-34.5606 400.35604,235.5061 -244.09532,-360.2167 -15.12984,43.9155 C 793.51865,4304.5371 613.77618,3445.5285 610,3910 c -3.77618,464.4715 189.9092,-391.5011 -45.59683,8.8549 -235.50603,400.356 418.54604,-184.8098 14.41382,44.1557 C 174.68477,4191.9761 1012.8215,3931.7262 548.35,3927.95 z"
       inkscape:transform-center-y="-3.1692401"
       transform="matrix(0.53213198,0,0,0.53829381,464.86558,-1091.7562)" />
    <text
       sodipodi:linespacing="125%"
       id="text3790"
       y="911.58539"
       x="58.818195"
       style="font-size:146.86073303px;font-style:normal;font-variant:normal;font-weight:normal;font-stretch:normal;line-height:125%;letter-spacing:0px;word-spacing:0px;opacity:0.79904306;fill:#cccccc;fill-opacity:0.39790578;stroke:none;font-family:Arial;-inkscape-font-specification:Sans"
       xml:space="preserve"><tspan
         y="911.58539"
         x="58.818195"
         id="tspan3792"
         sodipodi:role="line">noinil@gmail.com</tspan></text>
  </g>
</svg>
