<?xml version="1.0" encoding="UTF-8" standalone="no"?>
<!-- Created with Inkscape (http://www.inkscape.org/) -->

<svg
   xmlns:dc="http://purl.org/dc/elements/1.1/"
   xmlns:cc="http://creativecommons.org/ns#"
   xmlns:rdf="http://www.w3.org/1999/02/22-rdf-syntax-ns#"
   xmlns:svg="http://www.w3.org/2000/svg"
   xmlns="http://www.w3.org/2000/svg"
   xmlns:sodipodi="http://sodipodi.sourceforge.net/DTD/sodipodi-0.dtd"
   xmlns:inkscape="http://www.inkscape.org/namespaces/inkscape"
   width="60.677776mm"
   height="60.677776mm"
   viewBox="0 0 214.99999 214.99999"
   id="svg2"
   version="1.1"
   inkscape:version="0.91 r13725"
   sodipodi:docname="fav_icon_2.svg"
   inkscape:export-filename="/Users/noinil/Workspace/c-tan.com/content/images/favicon.ico"
   inkscape:export-xdpi="26.790697"
   inkscape:export-ydpi="26.790697">
  <defs
     id="defs4">
    <clipPath
       clipPathUnits="userSpaceOnUse"
       id="clipPath4215">
      <rect
         style="opacity:1;fill:#3da6f7;fill-opacity:1;stroke:none;stroke-width:2;stroke-miterlimit:4;stroke-dasharray:none;stroke-dashoffset:0;stroke-opacity:1"
         id="rect4217"
         width="211.42857"
         height="211.42857"
         x="167.1423"
         y="112.36187"
         ry="13.571428"
         rx="13.571428" />
    </clipPath>
    <filter
       inkscape:collect="always"
       style="color-interpolation-filters:sRGB"
       id="filter4435"
       x="-0.029999999"
       width="1.0599999"
       y="-0.029999999"
       height="1.0599999">
      <feGaussianBlur
         inkscape:collect="always"
         stdDeviation="2.6071428"
         id="feGaussianBlur4437" />
    </filter>
    <filter
       inkscape:collect="always"
       style="color-interpolation-filters:sRGB"
       id="filter4528"
       x="-0.034799837"
       width="1.0695997"
       y="-0.034800164"
       height="1.0696003">
      <feGaussianBlur
         inkscape:collect="always"
         stdDeviation="3.0242837"
         id="feGaussianBlur4530" />
    </filter>
    <filter
       inkscape:collect="always"
       style="color-interpolation-filters:sRGB"
       id="filter4808"
       x="-0.059999999"
       width="1.12"
       y="-0.059999999"
       height="1.12">
      <feGaussianBlur
         inkscape:collect="always"
         stdDeviation="2.5356238"
         id="feGaussianBlur4810" />
    </filter>
    <filter
       inkscape:collect="always"
       style="color-interpolation-filters:sRGB"
       id="filter4884"
       x="-0.074190825"
       width="1.1483817"
       y="-0.063447706"
       height="1.1268954">
      <feGaussianBlur
         inkscape:collect="always"
         stdDeviation="4.5886288"
         id="feGaussianBlur4886" />
    </filter>
    <clipPath
       clipPathUnits="userSpaceOnUse"
       id="clipPath4899">
      <rect
         style="opacity:0.68199978;fill:#000064;fill-opacity:1;stroke:none;stroke-width:12;stroke-miterlimit:4;stroke-dasharray:none;stroke-dashoffset:0;stroke-opacity:1"
         id="rect4901"
         width="215"
         height="215"
         x="165.71373"
         y="113.07616" />
    </clipPath>
  </defs>
  <sodipodi:namedview
     id="base"
     pagecolor="#ffffff"
     bordercolor="#666666"
     borderopacity="1.0"
     inkscape:pageopacity="0.0"
     inkscape:pageshadow="2"
     inkscape:zoom="1.4"
     inkscape:cx="183.42217"
     inkscape:cy="42.527061"
     inkscape:document-units="px"
     inkscape:current-layer="layer1"
     showgrid="false"
     inkscape:window-width="1920"
     inkscape:window-height="1119"
     inkscape:window-x="0"
     inkscape:window-y="1"
     inkscape:window-maximized="1"
     fit-margin-top="0"
     fit-margin-left="0"
     fit-margin-right="0"
     fit-margin-bottom="0" />
  <metadata
     id="metadata7">
    <rdf:RDF>
      <cc:Work
         rdf:about="">
        <dc:format>image/svg+xml</dc:format>
        <dc:type
           rdf:resource="http://purl.org/dc/dcmitype/StillImage" />
        <dc:title></dc:title>
      </cc:Work>
    </rdf:RDF>
  </metadata>
  <g
     inkscape:label="Layer 1"
     inkscape:groupmode="layer"
     id="layer1"
     transform="translate(-165.71373,-113.07616)">
    <g
       id="g4888"
       clip-path="url(#clipPath4899)">
      <circle
         style="opacity:1;fill:#120a15;fill-opacity:1;stroke:none;stroke-width:2;stroke-miterlimit:4;stroke-dasharray:none;stroke-dashoffset:0;stroke-opacity:1;filter:url(#filter4435)"
         id="circle4221"
         cx="273.42801"
         cy="219.36188"
         r="104.28571" />
      <circle
         cy="218.07616"
         cx="272.1423"
         id="path4219"
         style="opacity:1;fill:#3da6f7;fill-opacity:1;stroke:none;stroke-width:2;stroke-miterlimit:4;stroke-dasharray:none;stroke-dashoffset:0;stroke-opacity:1"
         r="103.57143" />
      <path
         inkscape:connector-curvature="0"
         id="circle4439"
         d="M 273.42857,114.36244 A 104.28571,104.28571 0 0 0 169.14146,218.64759 104.28571,104.28571 0 0 0 273.42857,322.93275 104.28571,104.28571 0 0 0 377.71373,218.64759 104.28571,104.28571 0 0 0 273.42857,114.36244 Z m -1.07226,1.42773 A 101.78571,101.78571 0 0 1 374.14146,217.57532 101.78571,101.78571 0 0 1 272.35631,319.36243 101.78571,101.78571 0 0 1 170.57115,217.57532 101.78571,101.78571 0 0 1 272.35631,115.79017 Z"
         style="opacity:0.56099997;fill:#120a15;fill-opacity:1;stroke:none;stroke-width:2;stroke-miterlimit:4;stroke-dasharray:none;stroke-dashoffset:0;stroke-opacity:1;filter:url(#filter4528)" />
      <path
         style="opacity:0.68199983;fill:none;fill-opacity:1;stroke:#0f0a00;stroke-width:12;stroke-miterlimit:4;stroke-dasharray:none;stroke-dashoffset:0;stroke-opacity:1;filter:url(#filter4884)"
         id="path4534"
         sodipodi:type="arc"
         sodipodi:cx="347.29025"
         sodipodi:cy="-40.413879"
         sodipodi:rx="86.785713"
         sodipodi:ry="86.785713"
         sodipodi:start="0"
         sodipodi:end="4.7130937"
         d="M 434.07597,-40.413879 A 86.785713,86.785713 0 0 1 380.48758,39.771515 86.785713,86.785713 0 0 1 285.90187,20.93126 86.785713,86.785713 0 0 1 267.12827,-73.667707 86.785713,86.785713 0 0 1 347.35141,-127.19957"
         transform="matrix(0.70430638,0.70989613,-0.70989613,0.70430638,1.2857143,1.2857143)"
         sodipodi:open="true" />
      <path
         sodipodi:open="true"
         transform="matrix(0.70430638,0.70989613,-0.70989613,0.70430638,0,0)"
         d="M 434.78742,-41.130985 A 86.785713,86.785713 0 0 1 381.19904,39.054409 86.785713,86.785713 0 0 1 286.61332,20.214154 86.785713,86.785713 0 0 1 267.83973,-74.384813 86.785713,86.785713 0 0 1 348.06287,-127.91668"
         sodipodi:end="4.7130937"
         sodipodi:start="0"
         sodipodi:ry="86.785713"
         sodipodi:rx="86.785713"
         sodipodi:cy="-41.130985"
         sodipodi:cx="348.00171"
         sodipodi:type="arc"
         id="path4532"
         style="opacity:1;fill:none;fill-opacity:1;stroke:#ffffff;stroke-width:12;stroke-miterlimit:4;stroke-dasharray:none;stroke-dashoffset:0;stroke-opacity:1" />
      <path
         inkscape:connector-curvature="0"
         id="rect4576"
         d="m 246.28433,175.07562 0,12.86375 44.28158,0 0,88.5612 12.86375,0 0,-88.5612 44.27962,0 0,-12.86375 -44.27962,0 -12.86375,0 -44.28158,0 z"
         style="opacity:0.54299999;fill:#000064;fill-opacity:1;stroke:none;stroke-width:8;stroke-miterlimit:4;stroke-dasharray:none;stroke-dashoffset:0;stroke-opacity:1;filter:url(#filter4808)" />
      <path
         style="opacity:1;fill:#ffffff;fill-opacity:1;stroke:none;stroke-width:8;stroke-miterlimit:4;stroke-dasharray:none;stroke-dashoffset:0;stroke-opacity:1"
         d="m 244.28432,173.07561 0,12.85742 44.25977,0 0,88.51758 12.85742,0 0,-88.51758 44.25781,0 0,-12.85742 -44.25781,0 -12.85742,0 -44.25977,0 z"
         id="path4594"
         inkscape:connector-curvature="0" />
    </g>
  </g>
</svg>
