<?xml version="1.0" encoding="UTF-8" standalone="no"?>
<!-- Generator: Adobe Illustrator 14.0.0, SVG Export Plug-In . SVG Version: 6.00 Build 43363)  -->

<svg
   xmlns:dc="http://purl.org/dc/elements/1.1/"
   xmlns:cc="http://creativecommons.org/ns#"
   xmlns:rdf="http://www.w3.org/1999/02/22-rdf-syntax-ns#"
   xmlns:svg="http://www.w3.org/2000/svg"
   xmlns="http://www.w3.org/2000/svg"
   xmlns:sodipodi="http://sodipodi.sourceforge.net/DTD/sodipodi-0.dtd"
   xmlns:inkscape="http://www.inkscape.org/namespaces/inkscape"
   version="1.1"
   id="图层_1"
   x="0px"
   y="0px"
   width="370.21097"
   height="173.09448"
   viewBox="0 0 370.21095 173.09448"
   enable-background="new 0 0 595.28 841.89"
   xml:space="preserve"
   inkscape:version="0.48.3.1 r9886"
   sodipodi:docname="njuname.svg"><title
   id="title3013">Nanjing University Name in English and Chinese</title><metadata
   id="metadata71"><rdf:RDF><cc:Work
       rdf:about=""><dc:format>image/svg+xml</dc:format><dc:type
         rdf:resource="http://purl.org/dc/dcmitype/StillImage" /><dc:title>Nanjing University Name in English and Chinese</dc:title><dc:date>2012 10 16</dc:date><dc:creator><cc:Agent><dc:title>extrieved by Fanchy Lee</dc:title></cc:Agent></dc:creator><dc:publisher><cc:Agent><dc:title>http://xiaoban.nju.edu.cn/zlxz/nju.rar</dc:title></cc:Agent></dc:publisher></cc:Work></rdf:RDF></metadata><defs
   id="defs69" /><sodipodi:namedview
   pagecolor="#ffffff"
   bordercolor="#666666"
   borderopacity="1"
   objecttolerance="10"
   gridtolerance="10"
   guidetolerance="10"
   inkscape:pageopacity="0"
   inkscape:pageshadow="2"
   inkscape:window-width="743"
   inkscape:window-height="480"
   id="namedview67"
   showgrid="false"
   fit-margin-top="0"
   fit-margin-left="0"
   fit-margin-right="0"
   fit-margin-bottom="0"
   inkscape:zoom="0.28032165"
   inkscape:cx="177.54154"
   inkscape:cy="115.006"
   inkscape:window-x="0"
   inkscape:window-y="24"
   inkscape:window-maximized="0"
   inkscape:current-layer="图层_1" />
<g
   id="g3"
   transform="translate(-120.09847,-362.85652)">
	<g
   id="g5">
		<path
   d="m 147.699,517.849 c -0.245,0.026 -0.595,0.074 -1.049,0.144 -0.455,0.07 -0.866,0.241 -1.233,0.512 -0.324,0.236 -0.553,0.641 -0.688,1.213 -0.136,0.574 -0.204,1.415 -0.204,2.525 v 13.301 h -2.334 l -11.595,-14.389 v 8.734 c 0,1.085 0.072,1.909 0.216,2.473 0.144,0.564 0.378,0.978 0.702,1.24 0.236,0.191 0.612,0.363 1.128,0.512 0.516,0.149 0.927,0.248 1.233,0.301 v 1.023 h -8.001 v -1.023 c 0.341,-0.025 0.732,-0.09 1.174,-0.189 0.441,-0.101 0.811,-0.256 1.108,-0.466 0.341,-0.254 0.575,-0.636 0.702,-1.147 0.127,-0.512 0.19,-1.371 0.19,-2.578 v -8.814 c 0,-0.437 -0.068,-0.85 -0.203,-1.238 -0.136,-0.39 -0.348,-0.725 -0.636,-1.004 -0.306,-0.297 -0.658,-0.531 -1.056,-0.701 -0.398,-0.172 -0.851,-0.305 -1.357,-0.4 v -1.05 h 7.006 l 10.176,12.587 v -7.041 c 0,-1.118 -0.075,-1.951 -0.223,-2.497 -0.149,-0.546 -0.385,-0.95 -0.708,-1.213 -0.253,-0.2 -0.629,-0.374 -1.128,-0.518 -0.498,-0.144 -0.9,-0.243 -1.207,-0.295 v -1.023 h 7.988 v 1.021 z"
   id="path7"
   inkscape:connector-curvature="0"
   style="fill:#630460" />
		<path
   d="m 170.677,535.438 h -10.139 v -1.023 c 0.471,-0.035 1.025,-0.119 1.662,-0.256 0.638,-0.135 0.956,-0.303 0.956,-0.504 0,-0.07 -0.007,-0.149 -0.02,-0.236 -0.014,-0.088 -0.051,-0.205 -0.111,-0.354 l -1.589,-3.856 h -6.425 c -0.148,0.359 -0.311,0.778 -0.489,1.26 -0.178,0.48 -0.333,0.909 -0.463,1.285 -0.165,0.49 -0.263,0.844 -0.293,1.063 -0.031,0.219 -0.046,0.371 -0.046,0.459 0,0.279 0.211,0.518 0.635,0.715 0.424,0.197 1.129,0.339 2.117,0.426 v 1.023 h -7.634 v -1.023 c 0.289,-0.018 0.614,-0.063 0.977,-0.137 0.363,-0.074 0.649,-0.178 0.859,-0.309 0.359,-0.21 0.663,-0.468 0.912,-0.773 0.25,-0.307 0.457,-0.67 0.623,-1.09 1.015,-2.457 2.031,-4.918 3.05,-7.385 1.019,-2.465 2.145,-5.185 3.377,-8.158 h 2.624 c 1.714,4.215 3.056,7.547 4.026,9.995 0.97,2.448 1.797,4.478 2.479,6.086 0.113,0.263 0.258,0.501 0.433,0.715 0.175,0.214 0.424,0.418 0.747,0.61 0.245,0.14 0.529,0.244 0.853,0.314 0.324,0.07 0.617,0.113 0.879,0.131 v 1.022 z m -9.781,-7.53 -2.693,-6.727 -2.654,6.727 h 5.347 z"
   id="path9"
   inkscape:connector-curvature="0"
   style="fill:#630460" />
		<path
   d="m 193.84,517.849 c -0.245,0.026 -0.595,0.074 -1.05,0.144 -0.455,0.07 -0.865,0.241 -1.232,0.512 -0.324,0.236 -0.554,0.641 -0.689,1.213 -0.136,0.574 -0.203,1.415 -0.203,2.525 v 13.301 h -2.335 l -11.595,-14.389 v 8.734 c 0,1.085 0.072,1.909 0.217,2.473 0.145,0.564 0.378,0.978 0.701,1.24 0.236,0.191 0.612,0.363 1.129,0.512 0.516,0.148 0.927,0.248 1.232,0.301 v 1.023 h -8.001 v -1.023 c 0.341,-0.025 0.732,-0.09 1.174,-0.189 0.441,-0.101 0.812,-0.256 1.108,-0.466 0.341,-0.254 0.575,-0.636 0.702,-1.147 0.126,-0.512 0.189,-1.371 0.189,-2.578 v -8.814 c 0,-0.437 -0.067,-0.85 -0.203,-1.238 -0.136,-0.39 -0.348,-0.725 -0.636,-1.004 -0.307,-0.297 -0.658,-0.531 -1.056,-0.701 -0.398,-0.172 -0.851,-0.305 -1.357,-0.4 v -1.05 h 7.006 l 10.176,12.587 v -7.041 c 0,-1.118 -0.074,-1.951 -0.223,-2.497 -0.149,-0.546 -0.385,-0.95 -0.708,-1.213 -0.254,-0.2 -0.63,-0.374 -1.128,-0.518 -0.499,-0.144 -0.901,-0.243 -1.207,-0.295 v -1.023 h 7.988 v 1.021 z"
   id="path11"
   inkscape:connector-curvature="0"
   style="fill:#630460" />
		<path
   d="m 211.007,517.849 c -0.35,0.044 -0.647,0.087 -0.893,0.132 -0.244,0.043 -0.52,0.104 -0.826,0.184 -0.358,0.096 -0.588,0.267 -0.688,0.512 -0.101,0.244 -0.15,0.525 -0.15,0.84 v 10.264 c 0,0.945 -0.19,1.813 -0.571,2.6 -0.38,0.787 -0.902,1.448 -1.567,1.982 -0.673,0.524 -1.425,0.92 -2.256,1.188 -0.831,0.267 -1.718,0.4 -2.662,0.4 -1.636,0 -2.954,-0.394 -3.955,-1.181 -1.001,-0.787 -1.502,-1.866 -1.502,-3.239 0,-0.813 0.229,-1.486 0.688,-2.021 0.46,-0.533 1.091,-0.8 1.896,-0.8 0.761,0 1.366,0.223 1.816,0.669 0.451,0.446 0.676,0.997 0.676,1.652 0,0.56 -0.194,1.078 -0.583,1.554 -0.39,0.478 -0.833,0.917 -1.332,1.318 v 0.171 c 0.079,0.175 0.25,0.323 0.514,0.446 0.263,0.123 0.53,0.184 0.802,0.184 1.053,0 1.879,-0.377 2.479,-1.129 0.6,-0.752 0.901,-1.891 0.901,-3.413 v -10.515 c 0,-0.314 -0.049,-0.577 -0.146,-0.787 -0.097,-0.21 -0.329,-0.395 -0.698,-0.551 -0.264,-0.114 -0.582,-0.211 -0.956,-0.289 -0.373,-0.079 -0.683,-0.137 -0.929,-0.171 v -1.023 h 9.942 v 1.023 z"
   id="path13"
   inkscape:connector-curvature="0"
   style="fill:#630460" />
		<path
   d="M 224.462,535.438 H 214.14 v -1.023 c 0.236,-0.018 0.584,-0.043 1.043,-0.078 0.459,-0.035 0.775,-0.088 0.951,-0.158 0.323,-0.131 0.544,-0.303 0.662,-0.518 0.118,-0.214 0.177,-0.487 0.177,-0.82 v -13.194 c 0,-0.298 -0.057,-0.56 -0.17,-0.787 -0.114,-0.228 -0.337,-0.411 -0.669,-0.551 -0.21,-0.087 -0.521,-0.177 -0.932,-0.269 -0.411,-0.092 -0.766,-0.156 -1.063,-0.19 v -1.023 h 10.322 v 1.023 c -0.262,0.026 -0.59,0.063 -0.983,0.111 -0.393,0.048 -0.726,0.116 -0.997,0.203 -0.341,0.114 -0.568,0.291 -0.682,0.531 -0.114,0.241 -0.171,0.514 -0.171,0.819 v 13.183 c 0,0.314 0.06,0.583 0.178,0.807 0.118,0.223 0.343,0.404 0.675,0.544 0.184,0.079 0.487,0.156 0.912,0.23 0.424,0.074 0.78,0.119 1.068,0.137 v 1.023 z"
   id="path15"
   inkscape:connector-curvature="0"
   style="fill:#630460" />
		<path
   d="m 249.186,517.849 c -0.245,0.026 -0.595,0.074 -1.05,0.144 -0.455,0.07 -0.865,0.241 -1.232,0.512 -0.324,0.236 -0.554,0.641 -0.689,1.213 -0.136,0.574 -0.203,1.415 -0.203,2.525 v 13.301 h -2.335 l -11.595,-14.389 v 8.734 c 0,1.085 0.072,1.909 0.217,2.473 0.145,0.564 0.378,0.978 0.701,1.24 0.236,0.191 0.612,0.363 1.129,0.512 0.516,0.148 0.927,0.248 1.232,0.301 v 1.023 h -8.001 v -1.023 c 0.341,-0.025 0.732,-0.09 1.174,-0.189 0.441,-0.101 0.812,-0.256 1.108,-0.466 0.341,-0.254 0.575,-0.636 0.702,-1.147 0.126,-0.512 0.189,-1.371 0.189,-2.578 v -8.814 c 0,-0.437 -0.067,-0.85 -0.203,-1.238 -0.136,-0.39 -0.348,-0.725 -0.636,-1.004 -0.307,-0.297 -0.658,-0.531 -1.056,-0.701 -0.398,-0.172 -0.851,-0.305 -1.357,-0.4 v -1.05 h 7.006 l 10.176,12.587 v -7.041 c 0,-1.118 -0.074,-1.951 -0.223,-2.497 -0.149,-0.546 -0.385,-0.95 -0.708,-1.213 -0.254,-0.2 -0.63,-0.374 -1.128,-0.518 -0.499,-0.144 -0.901,-0.243 -1.207,-0.295 v -1.023 h 7.988 v 1.021 z"
   id="path17"
   inkscape:connector-curvature="0"
   style="fill:#630460" />
		<path
   d="m 272.688,527.869 c -0.271,0.026 -0.512,0.057 -0.722,0.092 -0.21,0.035 -0.472,0.105 -0.787,0.21 -0.358,0.114 -0.595,0.302 -0.708,0.563 -0.113,0.264 -0.17,0.539 -0.17,0.827 v 2.164 c 0,0.438 0.004,0.789 0.013,1.056 0.009,0.268 0.021,0.598 0.039,0.99 -0.874,0.525 -2.166,1.02 -3.876,1.482 -1.709,0.463 -3.281,0.695 -4.715,0.695 -1.347,0 -2.61,-0.206 -3.791,-0.617 -1.181,-0.411 -2.217,-1.027 -3.108,-1.851 -0.892,-0.813 -1.594,-1.824 -2.105,-3.032 -0.511,-1.207 -0.767,-2.59 -0.767,-4.146 0,-1.453 0.24,-2.797 0.721,-4.03 0.481,-1.233 1.177,-2.297 2.086,-3.189 0.892,-0.884 1.979,-1.565 3.26,-2.048 1.28,-0.48 2.699,-0.721 4.256,-0.721 1.058,0 2.037,0.131 2.938,0.393 0.9,0.263 1.644,0.543 2.229,0.84 l 0.813,-0.722 h 1.141 l 0.118,6.794 h -1.154 c -0.665,-2.041 -1.46,-3.557 -2.387,-4.547 -0.928,-0.991 -2.099,-1.486 -3.516,-1.486 -1.679,0 -2.976,0.735 -3.889,2.205 -0.914,1.471 -1.371,3.496 -1.371,6.078 0,2.739 0.448,4.883 1.345,6.432 0.897,1.549 2.166,2.324 3.811,2.324 0.769,0 1.453,-0.117 2.053,-0.348 0.599,-0.232 1.064,-0.501 1.396,-0.807 v -3.778 c 0,-0.314 -0.057,-0.579 -0.171,-0.794 -0.113,-0.213 -0.341,-0.399 -0.682,-0.557 -0.263,-0.123 -0.59,-0.223 -0.983,-0.302 -0.393,-0.079 -0.722,-0.136 -0.984,-0.171 v -1.023 h 9.667 v 1.024 z"
   id="path19"
   inkscape:connector-curvature="0"
   style="fill:#630460" />
		<path
   d="m 305.122,517.849 c -0.254,0.026 -0.618,0.085 -1.095,0.177 -0.477,0.092 -0.877,0.252 -1.2,0.479 -0.333,0.219 -0.566,0.612 -0.702,1.181 -0.136,0.569 -0.203,1.421 -0.203,2.558 v 6.926 c 0,2.037 -0.69,3.677 -2.072,4.918 -1.382,1.242 -3.209,1.863 -5.482,1.863 -2.649,0 -4.7,-0.6 -6.151,-1.797 -1.452,-1.198 -2.178,-2.868 -2.178,-5.011 v -9.522 c 0,-0.307 -0.06,-0.568 -0.177,-0.787 -0.118,-0.219 -0.344,-0.415 -0.676,-0.59 -0.228,-0.113 -0.508,-0.205 -0.84,-0.275 -0.332,-0.07 -0.604,-0.118 -0.813,-0.145 v -0.997 h 9.758 v 0.997 c -0.279,0.018 -0.563,0.051 -0.853,0.098 -0.288,0.049 -0.581,0.121 -0.879,0.217 -0.332,0.105 -0.555,0.28 -0.669,0.525 -0.113,0.244 -0.17,0.52 -0.17,0.826 v 9.391 c 0,1.846 0.406,3.188 1.218,4.027 0.813,0.84 1.991,1.259 3.537,1.259 1.52,0 2.711,-0.464 3.575,-1.39 0.865,-0.928 1.297,-2.291 1.297,-4.093 v -6.31 c 0,-1.119 -0.076,-1.956 -0.229,-2.512 -0.152,-0.555 -0.387,-0.955 -0.701,-1.199 -0.228,-0.193 -0.623,-0.367 -1.188,-0.525 -0.563,-0.157 -0.96,-0.254 -1.187,-0.288 v -1.023 h 8.079 v 1.022 z"
   id="path21"
   inkscape:connector-curvature="0"
   style="fill:#630460" />
		<path
   d="m 329.071,517.849 c -0.245,0.026 -0.595,0.074 -1.05,0.144 -0.455,0.07 -0.865,0.241 -1.232,0.512 -0.324,0.236 -0.554,0.641 -0.689,1.213 -0.136,0.574 -0.203,1.415 -0.203,2.525 v 13.301 h -2.335 l -11.595,-14.389 v 8.734 c 0,1.085 0.072,1.909 0.217,2.473 0.145,0.564 0.378,0.978 0.701,1.24 0.236,0.191 0.612,0.363 1.129,0.512 0.516,0.148 0.927,0.248 1.232,0.301 v 1.023 h -8.001 v -1.023 c 0.341,-0.025 0.732,-0.09 1.174,-0.189 0.441,-0.101 0.812,-0.256 1.108,-0.466 0.341,-0.254 0.575,-0.636 0.702,-1.147 0.126,-0.512 0.189,-1.371 0.189,-2.578 v -8.814 c 0,-0.437 -0.067,-0.85 -0.203,-1.238 -0.136,-0.39 -0.348,-0.725 -0.636,-1.004 -0.307,-0.297 -0.658,-0.531 -1.056,-0.701 -0.398,-0.172 -0.851,-0.305 -1.357,-0.4 v -1.05 h 7.006 l 10.176,12.587 v -7.041 c 0,-1.118 -0.074,-1.951 -0.223,-2.497 -0.149,-0.546 -0.385,-0.95 -0.708,-1.213 -0.254,-0.2 -0.63,-0.374 -1.128,-0.518 -0.499,-0.144 -0.901,-0.243 -1.207,-0.295 v -1.023 h 7.988 v 1.021 z"
   id="path23"
   inkscape:connector-curvature="0"
   style="fill:#630460" />
		<path
   d="m 342.094,535.438 h -10.322 v -1.023 c 0.236,-0.018 0.584,-0.043 1.043,-0.078 0.459,-0.035 0.775,-0.088 0.951,-0.158 0.323,-0.131 0.544,-0.303 0.662,-0.518 0.118,-0.214 0.177,-0.487 0.177,-0.82 v -13.194 c 0,-0.298 -0.057,-0.56 -0.17,-0.787 -0.114,-0.228 -0.337,-0.411 -0.669,-0.551 -0.21,-0.087 -0.521,-0.177 -0.932,-0.269 -0.411,-0.092 -0.766,-0.156 -1.063,-0.19 v -1.023 h 10.322 v 1.023 c -0.262,0.026 -0.59,0.063 -0.983,0.111 -0.393,0.048 -0.726,0.116 -0.997,0.203 -0.341,0.114 -0.568,0.291 -0.682,0.531 -0.114,0.241 -0.171,0.514 -0.171,0.819 v 13.183 c 0,0.314 0.06,0.583 0.178,0.807 0.118,0.223 0.343,0.404 0.675,0.544 0.184,0.079 0.487,0.156 0.912,0.23 0.424,0.074 0.78,0.119 1.068,0.137 v 1.023 z"
   id="path25"
   inkscape:connector-curvature="0"
   style="fill:#630460" />
		<path
   d="m 365.545,517.875 c -0.289,0.025 -0.564,0.078 -0.826,0.157 -0.263,0.079 -0.534,0.201 -0.813,0.367 -0.376,0.219 -0.667,0.452 -0.872,0.702 -0.206,0.248 -0.409,0.592 -0.61,1.029 -0.271,0.604 -0.651,1.484 -1.141,2.643 -0.49,1.159 -1.05,2.477 -1.68,3.955 -0.56,1.329 -1.165,2.785 -1.816,4.367 -0.651,1.583 -1.274,3.1 -1.869,4.552 h -2.636 c -1.225,-2.999 -2.471,-6.047 -3.738,-9.142 -1.269,-3.096 -2.16,-5.247 -2.676,-6.454 -0.201,-0.437 -0.396,-0.767 -0.584,-0.99 -0.188,-0.223 -0.487,-0.452 -0.898,-0.688 -0.297,-0.166 -0.56,-0.281 -0.787,-0.348 -0.228,-0.065 -0.528,-0.125 -0.905,-0.177 v -1.023 h 10.087 v 0.997 c -0.943,0.113 -1.584,0.234 -1.92,0.361 -0.337,0.126 -0.505,0.285 -0.505,0.479 0,0.096 0.015,0.199 0.046,0.308 0.03,0.109 0.076,0.256 0.138,0.439 0.279,0.769 0.786,2.024 1.521,3.767 0.734,1.743 1.823,4.4 3.266,7.975 0.883,-2.176 1.617,-4.014 2.202,-5.517 0.586,-1.502 1.102,-2.829 1.548,-3.982 0.219,-0.56 0.4,-1.081 0.544,-1.566 0.145,-0.485 0.217,-0.851 0.217,-1.095 0,-0.28 -0.201,-0.514 -0.604,-0.703 -0.401,-0.188 -1.145,-0.324 -2.229,-0.412 v -1.05 h 7.542 v 1.049 z"
   id="path27"
   inkscape:connector-curvature="0"
   style="fill:#630460" />
		<path
   d="m 384.023,521.573 h -0.997 c -0.253,-0.706 -0.69,-1.42 -1.312,-2.144 -0.621,-0.723 -1.237,-1.149 -1.85,-1.279 -0.262,-0.062 -0.627,-0.099 -1.095,-0.111 -0.468,-0.014 -0.854,-0.02 -1.161,-0.02 h -2.701 v 7.174 h 1.914 c 0.481,0 0.919,-0.057 1.313,-0.17 0.394,-0.113 0.752,-0.332 1.075,-0.656 0.201,-0.201 0.404,-0.555 0.609,-1.063 0.206,-0.507 0.339,-0.949 0.4,-1.324 h 0.997 v 7.765 h -0.997 c -0.053,-0.367 -0.186,-0.829 -0.4,-1.384 -0.214,-0.555 -0.417,-0.938 -0.609,-1.148 -0.289,-0.314 -0.63,-0.531 -1.023,-0.648 -0.394,-0.118 -0.848,-0.178 -1.364,-0.178 h -1.914 v 5.365 c 0,0.56 0.041,1.004 0.124,1.331 0.083,0.328 0.238,0.579 0.466,0.755 0.219,0.166 0.518,0.275 0.898,0.327 0.38,0.053 0.898,0.079 1.555,0.079 0.306,0 0.673,-0.004 1.102,-0.014 0.428,-0.008 0.804,-0.035 1.128,-0.078 0.367,-0.044 0.71,-0.109 1.029,-0.197 0.319,-0.087 0.558,-0.214 0.715,-0.38 0.42,-0.429 0.893,-1.083 1.417,-1.961 0.524,-0.879 0.87,-1.536 1.036,-1.974 h 0.957 l -0.354,5.797 h -17.458 v -1.023 c 0.244,-0.018 0.577,-0.053 0.997,-0.104 0.419,-0.053 0.717,-0.114 0.892,-0.184 0.332,-0.14 0.555,-0.317 0.669,-0.531 0.113,-0.214 0.17,-0.487 0.17,-0.819 v -13.13 c 0,-0.315 -0.048,-0.575 -0.144,-0.78 -0.097,-0.205 -0.328,-0.392 -0.695,-0.558 -0.228,-0.104 -0.547,-0.201 -0.958,-0.288 -0.411,-0.088 -0.721,-0.145 -0.931,-0.171 v -1.023 h 16.5 v 4.747 z"
   id="path29"
   inkscape:connector-curvature="0"
   style="fill:#630460" />
		<path
   d="m 409.875,535.438 h -7.143 c -1.231,-1.889 -2.256,-3.393 -3.073,-4.512 -0.816,-1.119 -1.832,-2.414 -3.047,-3.883 h -0.719 v 5.653 c 0,0.314 0.059,0.581 0.177,0.8 0.118,0.219 0.343,0.402 0.676,0.551 0.166,0.07 0.426,0.143 0.78,0.217 0.354,0.074 0.657,0.125 0.911,0.15 v 1.023 h -9.929 v -1.023 c 0.253,-0.025 0.588,-0.063 1.003,-0.111 0.415,-0.048 0.711,-0.107 0.886,-0.177 0.332,-0.14 0.555,-0.317 0.669,-0.531 0.113,-0.214 0.17,-0.487 0.17,-0.819 v -13.13 c 0,-0.315 -0.048,-0.577 -0.144,-0.787 -0.097,-0.21 -0.328,-0.394 -0.695,-0.551 -0.28,-0.114 -0.61,-0.21 -0.99,-0.288 -0.381,-0.079 -0.681,-0.137 -0.898,-0.171 v -1.023 h 10.44 c 2.335,0 4.107,0.365 5.318,1.095 1.211,0.73 1.817,1.835 1.817,3.313 0,1.303 -0.374,2.35 -1.122,3.142 -0.747,0.792 -1.887,1.409 -3.417,1.856 0.595,0.77 1.288,1.66 2.079,2.676 0.791,1.014 1.615,2.05 2.473,3.107 0.271,0.342 0.641,0.76 1.108,1.253 0.468,0.494 0.881,0.798 1.239,0.911 0.201,0.063 0.457,0.114 0.768,0.158 0.311,0.043 0.531,0.07 0.662,0.078 v 1.023 z M 400.943,521.6 c 0,-1.241 -0.348,-2.148 -1.043,-2.722 -0.695,-0.572 -1.686,-0.858 -2.971,-0.858 h -1.036 v 7.791 h 0.996 c 1.286,0 2.282,-0.337 2.991,-1.01 0.709,-0.674 1.063,-1.74 1.063,-3.201 z"
   id="path31"
   inkscape:connector-curvature="0"
   style="fill:#630460" />
		<path
   d="m 419.343,535.949 c -1.137,0 -2.196,-0.143 -3.181,-0.426 -0.983,-0.285 -1.816,-0.619 -2.498,-1.004 l -0.905,0.918 h -1.115 l -0.17,-6.729 h 1.128 c 0.253,0.64 0.577,1.314 0.971,2.024 0.394,0.71 0.848,1.345 1.363,1.906 0.533,0.587 1.131,1.064 1.791,1.433 0.66,0.369 1.432,0.553 2.314,0.553 1.189,0 2.101,-0.291 2.735,-0.873 0.634,-0.582 0.951,-1.315 0.951,-2.199 0,-0.727 -0.27,-1.337 -0.807,-1.832 -0.538,-0.494 -1.371,-0.921 -2.499,-1.281 -0.734,-0.237 -1.41,-0.457 -2.026,-0.658 -0.616,-0.203 -1.196,-0.408 -1.738,-0.619 -1.25,-0.5 -2.18,-1.213 -2.787,-2.141 -0.607,-0.929 -0.911,-1.966 -0.911,-3.113 0,-0.727 0.157,-1.425 0.472,-2.095 0.314,-0.669 0.774,-1.271 1.377,-1.806 0.577,-0.498 1.316,-0.906 2.217,-1.221 0.9,-0.316 1.88,-0.473 2.938,-0.473 1.031,0 1.998,0.144 2.898,0.432 0.9,0.289 1.609,0.578 2.125,0.866 l 0.8,-0.787 h 1.142 l 0.104,6.349 h -1.128 c -0.263,-0.684 -0.57,-1.383 -0.925,-2.098 -0.354,-0.714 -0.728,-1.308 -1.121,-1.781 -0.429,-0.508 -0.923,-0.914 -1.482,-1.216 -0.559,-0.302 -1.216,-0.454 -1.968,-0.454 -0.944,0 -1.716,0.268 -2.314,0.802 -0.6,0.534 -0.898,1.196 -0.898,1.983 0,0.745 0.26,1.354 0.78,1.826 0.521,0.474 1.331,0.89 2.433,1.248 0.647,0.22 1.308,0.438 1.981,0.657 0.673,0.219 1.271,0.429 1.797,0.63 1.268,0.491 2.231,1.168 2.892,2.029 0.66,0.863 0.99,1.934 0.99,3.211 0,0.807 -0.188,1.586 -0.563,2.339 -0.375,0.753 -0.884,1.379 -1.521,1.878 -0.7,0.552 -1.509,0.977 -2.427,1.273 -0.919,0.3 -1.991,0.449 -3.215,0.449 z"
   id="path33"
   inkscape:connector-curvature="0"
   style="fill:#630460" />
		<path
   d="m 440.826,535.438 h -10.322 v -1.023 c 0.236,-0.018 0.584,-0.043 1.043,-0.078 0.459,-0.035 0.775,-0.088 0.951,-0.158 0.323,-0.131 0.544,-0.303 0.662,-0.518 0.118,-0.214 0.177,-0.487 0.177,-0.82 v -13.194 c 0,-0.298 -0.057,-0.56 -0.17,-0.787 -0.114,-0.228 -0.337,-0.411 -0.669,-0.551 -0.21,-0.087 -0.521,-0.177 -0.932,-0.269 -0.411,-0.092 -0.766,-0.156 -1.063,-0.19 v -1.023 h 10.322 v 1.023 c -0.262,0.026 -0.59,0.063 -0.983,0.111 -0.393,0.048 -0.726,0.116 -0.997,0.203 -0.341,0.114 -0.568,0.291 -0.682,0.531 -0.114,0.241 -0.171,0.514 -0.171,0.819 v 13.183 c 0,0.314 0.06,0.583 0.178,0.807 0.118,0.223 0.343,0.404 0.675,0.544 0.184,0.079 0.487,0.156 0.912,0.23 0.424,0.074 0.78,0.119 1.068,0.137 v 1.023 z"
   id="path35"
   inkscape:connector-curvature="0"
   style="fill:#630460" />
		<path
   d="m 461.47,522.15 h -1.022 c -0.271,-0.795 -0.704,-1.648 -1.302,-2.558 -0.598,-0.91 -1.15,-1.399 -1.656,-1.469 -0.279,-0.035 -0.624,-0.065 -1.033,-0.092 -0.41,-0.026 -0.764,-0.04 -1.061,-0.04 h -0.614 v 14.6 c 0,0.314 0.057,0.592 0.17,0.832 0.113,0.24 0.337,0.432 0.669,0.57 0.201,0.079 0.514,0.16 0.938,0.243 0.425,0.083 0.785,0.142 1.083,0.177 v 1.023 h -10.375 v -1.023 c 0.253,-0.025 0.609,-0.063 1.068,-0.111 0.459,-0.048 0.771,-0.107 0.938,-0.177 0.342,-0.14 0.568,-0.328 0.683,-0.563 0.113,-0.236 0.171,-0.517 0.171,-0.84 v -14.73 h -0.615 c -0.297,0 -0.65,0.014 -1.061,0.04 -0.411,0.026 -0.754,0.057 -1.033,0.092 -0.507,0.069 -1.059,0.56 -1.656,1.469 -0.597,0.909 -1.031,1.763 -1.302,2.558 h -1.022 v -5.325 h 18.034 v 5.324 z"
   id="path37"
   inkscape:connector-curvature="0"
   style="fill:#630460" />
		<path
   d="m 483.792,517.849 c -0.314,0.034 -0.603,0.092 -0.864,0.171 -0.262,0.078 -0.511,0.188 -0.746,0.327 -0.376,0.21 -0.71,0.479 -1.002,0.807 -0.293,0.328 -0.578,0.693 -0.857,1.095 -0.568,0.832 -1.164,1.734 -1.788,2.709 -0.624,0.976 -1.303,2.049 -2.036,3.221 -0.48,0.743 -0.775,1.313 -0.885,1.711 -0.108,0.398 -0.163,1.087 -0.163,2.066 v 2.637 c 0,0.314 0.059,0.59 0.177,0.826 0.118,0.236 0.344,0.428 0.676,0.576 0.148,0.063 0.464,0.143 0.944,0.243 0.48,0.1 0.835,0.159 1.063,0.177 v 1.023 h -10.375 v -1.023 c 0.245,-0.018 0.597,-0.053 1.056,-0.104 0.459,-0.053 0.78,-0.114 0.964,-0.184 0.323,-0.14 0.545,-0.325 0.663,-0.558 0.117,-0.231 0.177,-0.514 0.177,-0.846 v -3.279 c 0,-0.289 -0.005,-0.542 -0.014,-0.761 -0.009,-0.219 -0.039,-0.402 -0.092,-0.551 -0.061,-0.166 -0.166,-0.378 -0.314,-0.636 -0.148,-0.258 -0.341,-0.593 -0.577,-1.004 -0.673,-1.181 -1.324,-2.3 -1.954,-3.357 -0.63,-1.059 -1.229,-2.051 -1.797,-2.979 -0.298,-0.48 -0.597,-0.867 -0.898,-1.16 -0.301,-0.293 -0.61,-0.531 -0.925,-0.715 -0.236,-0.131 -0.522,-0.231 -0.859,-0.302 -0.336,-0.069 -0.641,-0.113 -0.911,-0.131 v -1.023 h 10.663 v 1.023 c -0.976,0.026 -1.634,0.094 -1.975,0.203 -0.34,0.109 -0.511,0.261 -0.511,0.452 0,0.097 0.063,0.289 0.19,0.578 0.127,0.288 0.353,0.734 0.676,1.336 0.297,0.568 0.731,1.35 1.304,2.346 0.573,0.996 1.261,2.162 2.064,3.499 1.659,-2.63 2.799,-4.466 3.418,-5.511 0.62,-1.043 0.93,-1.684 0.93,-1.92 0,-0.297 -0.182,-0.524 -0.547,-0.682 -0.364,-0.158 -0.955,-0.258 -1.772,-0.302 v -1.023 h 6.899 v 1.025 z"
   id="path39"
   inkscape:connector-curvature="0"
   style="fill:#630460" />
	</g>
	<g
   id="g41">
		<path
   clip-rule="evenodd"
   d="m 162.403,370.735 c 0.259,0.073 0.313,-0.239 0.13,-0.258 2.937,0.544 3.866,4.272 7.219,4.843 3.186,3.389 -1.068,7.504 -1.051,10.901 1.621,2.174 4.476,-0.1 6.041,0.268 0.351,0.074 1.15,0.589 1.445,1.041 1.759,2.771 0.185,6.969 -3.011,7.494 -0.662,0.562 -1.197,1.252 -2.246,1.455 -3.398,4.466 -8.306,7.421 -12.08,11.546 -1.465,2.698 -3.905,4.42 -5.645,6.842 -2.569,1.031 -2.587,5.322 -3.011,8.396 -0.23,1.575 -0.994,2.855 0.387,3.408 2.457,-1.051 3.903,-3.104 5.386,-5.111 2.146,-1.317 3.471,-3.452 5.387,-5 1.574,-2.413 3.518,-4.447 5.119,-6.832 2.257,-1.234 3.683,-3.324 5.249,-5.249 2.173,-0.984 2.743,-3.572 4.732,-4.723 2.228,0.396 3.738,-1.207 5.644,-0.672 0.819,0.258 1.713,1.786 2.366,2.376 1.022,0.911 2.745,1.979 3.804,2.881 0.497,0.589 0.838,1.464 1.316,2.228 0.543,0.866 1.804,1.796 1.713,2.9 -0.074,0.765 -0.728,2.561 -1.068,3.407 -0.276,0.747 -0.368,2.505 -0.645,3.288 -0.332,0.948 -1.05,1.464 -1.316,2.9 -0.156,0.93 -0.111,1.915 -0.396,2.883 -0.498,1.732 -0.608,3.802 -0.774,6.436 -0.12,1.62 -0.441,3.002 -0.801,4.595 -0.415,1.896 0,3.36 -0.119,5.515 -0.037,0.478 -0.333,0.525 -0.406,0.931 -0.092,0.535 0.222,1.279 0.138,1.822 -0.064,0.414 -0.331,0.775 -0.396,1.188 -0.267,1.86 0.166,4.401 0.129,6.437 0,0.643 -0.064,1.621 0,2.099 0.166,1.077 0.765,2.274 0.921,4.199 0.13,1.482 0.332,3.71 0.13,4.465 -0.222,0.829 -2.274,2.164 -3.021,3.029 -1.123,1.317 -1.887,2.44 -2.485,3.536 -3.075,0 -3.075,3.075 -5.782,3.416 -1.501,-2.017 -1.961,-5.736 -5.258,-5.516 -1.768,-1.602 -3.14,-3.6 -5.901,-4.189 -2.1,2.339 0.138,6.179 -0.664,9.18 -0.782,2.938 -4.714,3.748 -4.456,7.081 -0.828,0.829 -1.859,1.464 -3.287,1.04 -0.128,-2.615 -2.753,-4.355 -2.882,-6.942 -0.451,-0.865 -1.363,-1.279 -2.1,-1.832 -0.818,0.093 -1.676,0.865 -2.643,0.783 -1.133,-0.093 -2.882,-1.713 -2.882,-2.358 0,-1.547 4.641,-2.945 5.782,-4.852 1.438,-2.468 0.673,-5.406 -0.92,-7.108 -1.806,-0.856 -2.919,1.75 -4.734,0.783 -0.367,-1.851 1.88,-2.257 1.843,-3.923 -0.037,-1.603 -2.008,-2.791 -2.763,-4.218 -0.525,-0.285 -1.316,0.047 -1.713,-0.119 -1.289,1.418 -2.375,3.038 -3.673,4.466 -1.759,0.57 -3.628,0.019 -4.981,1.308 -1.143,1.077 -1.989,3.112 -2.762,4.989 -0.572,1.392 -1.244,2.81 -1.18,4.218 -0.092,0.47 -0.534,0.599 -0.534,1.17 0.064,0.967 1.603,1.657 1.188,2.228 1.924,0.571 3.406,1.603 4.594,2.883 -0.184,1.242 0.885,2.338 1.18,3.425 0.791,2.771 -0.645,5.184 -1.574,7.081 -2.201,1.086 -4.135,0.745 -6.437,0 -2.321,-2.211 -5.276,-5.451 -6.823,-8.655 -0.543,-1.133 -0.074,-2.836 -0.267,-4.456 -0.073,-0.673 -0.424,-1.17 -0.259,-1.842 -1.361,-3.334 -1.482,-8.277 -0.782,-12.219 0.138,-0.811 0.415,-1.795 1.169,-2.229 0.498,0.12 0.479,0.737 0.921,0.912 -0.146,0.921 0.461,1.676 0.792,2.495 0.056,1.261 0.535,2.522 1.316,3.416 3.444,-1.878 4.835,-5.506 6.557,-8.794 2.68,-1.795 3.617,-5.146 6.178,-7.107 0.682,-0.507 0.957,-0.654 1.704,-1.041 0.616,-0.304 0.948,-0.607 1.315,-1.179 0.167,-1.915 -0.864,-2.743 -0.129,-4.466 1.594,-1.528 4.678,-0.855 5.635,-3.416 -0.598,-2.228 0.168,-5.284 -2.228,-5.772 -0.663,-0.147 -1.132,0.358 -1.694,0.387 -1.768,0.102 -2.68,-1.151 -3.949,-1.704 -1.86,-0.809 -3.563,-0.092 -5.645,-0.258 -0.57,-0.736 -0.939,-1.685 -1.308,-2.633 0.553,-1.188 1.16,-2.32 2.228,-3.02 0.406,-0.064 0.516,0.193 0.793,0.267 1.15,-0.598 1.464,-2.025 3.02,-2.228 1.087,-1.98 3.021,-3.112 4.061,-5.138 2.643,-1.5 4.779,-3.959 7.486,-5.368 0.939,-0.498 2.117,-0.553 2.504,-1.712 -0.139,-1.262 0.258,-2.035 0.258,-3.288 0,-0.782 0.424,-1.436 0.525,-2.237 0.221,-1.796 -0.175,-4.115 -0.268,-5.893 -0.146,-3.158 0.682,-6.491 0.663,-9.732 0.387,-0.35 0.552,-0.93 0.921,-1.308 0.275,-3.287 0.875,-6.73 0.258,-10.239 -0.294,-1.731 -1.289,-3.167 -0.92,-4.861 0.275,-1.206 1.196,-1.97 1.969,-2.901 3.343,-0.386 6.004,0.112 7.091,2.505 -0.69,1.775 0.102,4.095 0.662,5.256 z m 8.804,87.325 c 0.358,-0.286 0.57,-0.728 0.901,-1.05 0,-3.02 -0.109,-6.97 0,-9.585 0.056,-0.837 -0.129,-1.768 -0.119,-2.614 0.046,-2.789 0.728,-5.571 0.653,-8.297 -0.046,-1.795 -0.387,-3.517 0,-5.238 0.368,-1.611 0.977,-2.93 0.921,-4.604 -0.037,-1.014 -0.424,-1.953 -0.387,-2.883 0.056,-2.32 0.885,-4.374 1.179,-6.823 0.037,-0.34 -0.258,-0.616 -0.267,-0.93 -0.027,-1.869 0.782,-3.968 0.267,-5.902 -0.184,-0.148 -1.188,-1.695 -1.841,-1.068 -1.658,1.611 -4.163,4.336 -5.912,6.436 -0.901,1.095 -2.044,2.44 -2.356,3.811 -0.535,2.35 2.099,2.35 3.02,3.684 0.893,1.289 0.571,1.979 0.645,3.813 -0.838,0.284 -1.077,1.427 -1.842,2.228 -0.313,0.34 -0.848,0.543 -1.169,0.922 -1.317,1.555 -1.4,3.774 -2.366,5.781 -0.885,1.814 -2.614,3.803 -2.754,5.506 -0.193,2.201 1.777,3.619 1.833,5.792 -0.313,0.894 -1.418,1.565 -1.05,2.753 0.682,0.58 1.768,0.773 2.892,0.912 2.302,1.564 0,5.303 0.387,7.209 2.447,0.432 5.044,0.376 7.365,0.147 z m -15.764,-31.25 c -0.019,1.628 -1.234,2.376 -1.316,3.535 -0.691,0.341 -1.557,0.599 -1.961,1.188 -0.203,0.275 -0.057,0.855 -0.277,1.316 -0.193,0.396 -0.534,0.414 -0.645,0.773 -0.359,1.113 -0.221,2.55 -0.387,3.939 1.768,2.045 -0.201,4.945 0.387,8.021 0.626,0.57 1.584,1.869 2.762,1.712 2.137,-0.313 0.894,-5.147 1.833,-6.703 0.507,-0.856 1.188,-1.491 1.446,-2.763 0.192,-1.003 -0.074,-2.356 0.257,-3.406 0.175,-0.553 0.646,-1.013 0.793,-1.574 0.479,-1.852 0.368,-3.896 0.92,-5.645 -0.644,-1.148 -2.918,-1.656 -3.812,-0.393 z"
   id="path43"
   inkscape:connector-curvature="0"
   style="fill:#630460;fill-rule:evenodd" />
		<path
   clip-rule="evenodd"
   d="m 472.313,372.033 c -0.728,2.385 0.259,5.166 -1.445,6.565 -0.377,0.323 -0.819,0.313 -1.179,0.543 -0.672,0.433 -0.967,1.179 -1.703,1.575 -1.344,0.415 -2.744,-0.12 -3.812,0.258 -1.05,0.368 -1.381,1.685 -1.713,2.881 -1.73,2.017 -2.707,3.969 -3.407,6.971 1.584,2.191 5.635,2.965 4.853,6.693 -3.269,1.364 -4.512,5.027 -3.407,8.922 0.313,1.105 1.603,3.049 2.753,3.288 0.378,0.074 1.051,-0.166 1.584,-0.129 0.792,0.065 2.634,1.012 3.536,0.912 0.884,-0.083 1.354,-0.829 1.97,-1.298 0,-3.297 4.218,-8.104 -1.436,-8.011 -1.345,-1.086 -1.086,-4.034 -1.179,-5.654 -0.627,-0.498 -0.635,-1.262 -1.059,-1.833 -0.765,-1.04 -2.164,-1.261 -3.288,-1.979 0.866,-3.038 4.181,-1.851 7.1,-2.219 1.887,1.639 2.2,4.493 2.237,7.08 0.13,0.351 0.608,0.36 0.773,0.663 2.707,-2.062 3.306,-6.243 4.862,-9.457 0.027,-1.869 0.994,-3.24 1.444,-5.008 0.13,-0.516 -0.009,-1.068 0.13,-1.557 0.341,-1.178 1.216,-2.329 1.188,-3.425 -0.037,-1.114 -0.958,-2.007 -1.454,-3.02 0.516,-3.02 4.354,-2.725 6.187,-4.457 0.931,0.469 2.09,0.69 2.615,1.574 -0.055,0.608 -0.414,0.902 -0.525,1.446 0.249,1.934 2.496,2.146 2.366,3.94 -0.055,0.783 -1.15,1.317 -1.702,2.109 -1.197,1.657 -0.931,4.125 -2.496,5.11 -0.792,2.661 -2.872,4.898 -4.199,7.625 -0.33,0.662 -0.35,1.38 -0.662,2.108 -0.552,1.215 -1.842,1.97 -2.624,3.131 -1.814,2.725 -2.477,6.013 -3.941,8.94 -0.146,1.75 -1.068,2.983 -0.523,4.585 0.92,0.958 2.08,-0.295 3.415,-0.129 1.814,-1.51 2.025,-5.202 4.852,-5.635 0.406,-0.064 0.922,0.037 1.446,0 0.599,-0.055 1.132,-0.415 1.445,-0.405 0.534,0.037 0.922,0.459 1.445,0.663 1.078,0.414 2.478,0.58 3.029,1.575 0.332,1.206 -0.671,1.602 -1.187,2.366 -0.388,0.552 -0.452,1.27 -0.783,1.841 -0.552,0.884 -1.474,1.64 -2.108,2.615 -1.335,2.026 -2.605,3.931 -3.675,6.169 -2.273,1.814 -3.922,4.917 -7.218,5.258 -2.892,2.007 -6.104,3.72 -7.356,7.356 0.579,1.584 1.961,1.713 3.673,2.238 1.934,0.579 3.535,1.619 3.149,4.198 1.915,0.313 2.965,-0.405 4.732,-0.129 3.813,0.57 2.708,5.782 0.525,7.478 -0.203,0.165 -0.268,0.772 -0.396,0.929 -0.682,0.773 -1.693,1.565 -2.099,1.575 -0.461,0.009 -0.865,-0.572 -1.316,-0.673 -0.296,-0.056 -0.378,0.258 -0.784,0.267 -0.312,0.01 -0.735,-0.275 -0.92,-0.267 -2.025,0.101 -3.867,1.556 -5.653,0.921 -0.792,1.086 -1.787,2.854 -1.971,4.346 -0.258,2.136 1.06,2.119 1.842,3.406 0.185,0.296 0.092,0.729 0.267,1.041 0.894,1.832 3.112,3.121 3.545,4.613 0,0.434 0,0.865 0,1.316 1.548,1.012 1.437,3.131 2.367,4.99 0.883,1.777 3.249,3.158 2.753,6.16 -0.516,3.076 -4.051,3.637 -6.041,5.524 -1.491,0.083 -3.01,0.11 -4.198,-0.396 -1.096,-1.786 -2.808,-3.36 -4.99,-3.416 -1.188,-0.027 -2.413,1.096 -3.94,0.921 -0.239,-0.028 -0.406,-0.387 -0.663,-0.415 -0.323,0 -0.664,0.305 -0.912,0.276 -2.551,-0.183 -4.595,-0.47 -6.693,-1.832 0.128,-0.792 -0.313,-1.013 -0.405,-1.574 2.578,-2.081 7.09,-0.737 10.109,-1.179 1.639,-1.316 4.189,-1.05 6.041,-1.971 0.625,-2.605 -1.271,-3.803 -1.962,-5.524 0.009,-0.571 0.175,-0.534 0,-0.901 -1.686,-4.218 1.962,-9.697 -1.713,-12.486 -3.563,2.439 -7.07,6.049 -8.922,10.644 -3.26,1.935 -6.123,4.576 -8.416,7.753 -0.606,0.838 -1.233,2.764 -2.099,3.526 -0.902,0.829 -3.37,1.897 -4.457,2.108 -1.068,0.203 -2.154,-0.488 -3.286,0.12 -1.308,-0.341 -3.224,-0.728 -5.129,-1.04 -1.731,-0.286 -4.245,-1.335 -4.07,-3.15 0.055,-0.561 1.362,-2.743 1.971,-3.148 1.233,-0.811 3.379,-0.681 4.861,-1.188 0.626,-0.203 0.958,-0.728 1.583,-0.652 2.008,-1.76 4.033,-3.49 6.299,-4.982 0.304,-0.59 0.829,-0.939 1.05,-1.574 1.031,-0.985 2.366,-1.686 3.02,-3.029 0.986,-0.792 1.934,-1.445 3.021,-1.952 3.029,-1.464 5.487,-4.162 8.536,-5.94 0.321,0.258 0.8,-0.164 1.187,-0.248 1.86,-1.739 3.315,-3.875 3.804,-6.969 2.992,-1.943 0.175,-4.476 -1.575,-6.031 0.69,-0.994 2.671,-1.455 3.813,-2.376 1.629,-1.298 2.743,-3.37 4.07,-5.248 0.938,-1.335 4.198,-5.773 3.545,-8.14 -0.747,-2.679 -5.516,-0.441 -5.774,1.574 -2.763,0.957 -4.105,3.352 -6.445,4.733 -3.407,2.983 -6.546,6.233 -10.238,8.931 -0.295,0.258 -0.368,0.765 -0.654,1.051 -2.293,1.5 -4.981,-0.02 -7.891,0.771 -0.948,-0.699 -2.21,-1.095 -2.615,-2.347 2.063,-1.676 3.849,-3.692 6.703,-3.94 1.216,-0.389 1.988,-1.547 3.012,-2.238 0.304,-0.193 0.791,-0.193 1.187,-0.396 0.59,-0.286 0.792,-0.488 1.566,-0.783 1.362,-0.524 2.312,-1.657 3.683,-2.494 1.491,-0.912 3.343,-1.455 4.732,-2.367 0.719,-0.488 1.391,-1.666 2.229,-2.229 0.719,-0.488 1.693,-0.543 2.624,-0.92 1.832,-0.746 4.54,-2.321 4.853,-3.684 0.562,-2.329 -1.593,-3.563 -2.892,-4.724 -1.564,0.102 -2.65,1.823 -4.189,1.842 -0.772,0 -0.911,-0.497 -1.574,-0.801 -0.782,-0.332 -1.914,-0.157 -2.228,-1.041 -0.646,0.497 -1.031,-0.009 -1.584,-0.258 -1.62,1.546 -1.657,3.932 -2.891,5.782 -1.438,0.764 -3.159,3.638 -4.725,1.565 1.565,-2.283 2.966,-4.751 4.466,-7.09 -0.718,-1.685 -1.418,-6.04 -3.683,-4.087 0.819,3.038 -0.719,5.211 -2.625,6.574 -0.58,-0.055 -0.967,-0.599 -1.574,-0.515 -2.19,0.285 -1.004,3.608 -1.188,5.119 -0.101,0.875 -1.997,4.208 -3.01,4.595 -0.479,0.193 -1.325,-0.009 -1.971,0.138 -0.902,-0.516 -2.044,-1.279 -3.286,-1.049 -0.637,-1.17 -1.455,-1.888 -1.188,-3.15 0.202,-0.856 1.363,-1.344 1.455,-2.099 0.055,-0.607 -0.388,-1.298 -0.931,-1.998 -0.93,-1.188 -1.391,-2.155 -2.09,-3.526 0.682,-1.289 2.182,-1.759 2.229,-3.683 3.13,0.101 4.733,3.324 7.09,4.99 1.159,-0.193 1.031,-1.574 1.308,-2.487 0.331,-1.04 0.976,-1.491 0.395,-2.77 -0.174,-0.396 -0.671,-0.645 -0.92,-1.051 -0.229,-0.377 -0.248,-0.984 -0.524,-1.436 -0.35,-0.627 -0.921,-0.764 -0.912,-1.704 -1.271,-0.47 -2.329,-2.689 -3.673,-3.159 -0.849,-0.267 -1.474,0.295 -2.367,-0.138 0.801,-1.326 1.62,-2.652 2.367,-4.07 2.384,-1.169 3.185,1.169 4.861,1.446 0.589,-0.645 0.423,-1.289 0.515,-2.495 0.424,-0.25 0.525,-0.856 0.922,-1.17 1.426,-1.168 3.406,-0.451 5.257,-0.8 2.514,-0.461 4.263,-1.639 6.169,-2.744 0.479,-0.755 0.709,-1.732 1.18,-2.496 0.138,-4.097 2.439,-7.402 2.365,-11.565 -0.036,-2.035 -1.179,-4.852 0,-6.693 0.037,-0.451 -0.101,-1.068 0.129,-1.307 1.271,-1.29 2.357,-2.717 4.199,-3.426 1.215,0.939 2.799,1.501 3.683,2.762 0.607,0.148 0.811,0.681 1.584,0.664 0.295,0.755 1.657,1.749 2.753,1.693 0.433,0.936 1.253,1.461 1.824,2.234 z m -25.21,31.269 c 0.994,-1.722 3.112,-2.9 2.762,-5.506 -0.855,-0.847 -1.914,-0.682 -2.633,-1.593 -1.859,-0.276 -4.162,-0.461 -4.338,1.179 -0.027,0.322 0.969,2.827 1.188,3.167 0.259,0.359 0.829,0.571 1.05,0.912 0.424,0.663 0.212,1.537 0.792,1.841 0.544,-0.019 0.726,0.23 1.179,0 z m 6.435,-6.703 c -1.666,1.372 -2.403,3.453 -3.545,5.378 -0.533,0.911 -1.436,2.136 -1.308,2.762 0.296,1.621 2.1,0.571 3.537,0.405 1.583,-0.202 2.761,-0.128 3.286,-1.188 -0.497,-2.376 0.856,-4.77 -0.396,-6.961 -0.514,-0.138 -1.011,-0.304 -1.574,-0.396 z"
   id="path45"
   inkscape:connector-curvature="0"
   style="fill:#630460;fill-rule:evenodd" />
		<path
   clip-rule="evenodd"
   d="m 369.362,401.847 c 0.93,-0.157 1.889,0.626 2.754,0.792 1.141,0.229 1.841,0.027 3.02,0.533 1.962,0.82 3.131,2.099 1.455,4.181 -0.736,0.929 -2.136,1.224 -2.762,1.988 -2.21,0.368 -4.991,1.317 -6.574,2.762 -3.353,1.124 -6.482,2.957 -9.448,4.061 -0.321,-0.083 -0.606,-0.194 -1.049,-0.129 -0.608,0.184 -0.865,0.727 -1.584,0.792 -1.842,2.597 -1.437,6.693 -2.624,9.723 0.249,0.802 0.212,2.238 -0.267,2.744 -0.461,8.223 -4.089,15.037 -9.189,19.438 -0.147,0.119 -0.35,0.166 -0.653,0.139 -4.319,4.354 -8.886,8.35 -15.239,10.367 -0.258,0.092 -0.294,0.396 -0.525,0.525 -2.07,0.321 -4.17,1.916 -6.159,1.97 -0.847,0.027 -1.823,-0.13 -2.771,-0.13 -0.819,0 -1.842,0.48 -2.357,-0.258 -0.027,-0.617 0.7,-0.561 1.05,-0.791 0.323,-0.212 0.6,-0.589 0.921,-0.791 2.146,-1.309 4.595,-2.303 6.694,-3.675 2.734,-1.786 5.082,-4.061 7.882,-5.653 5.893,-5.552 11.306,-12.301 14.051,-20.219 0.082,-2.303 1.896,-6.253 -0.396,-7.744 -2.532,0.653 -3.416,2.974 -5.901,3.674 -0.286,0.728 -0.922,1.104 -1.179,1.842 -3.444,1.941 -5.819,4.953 -8.545,7.613 -1.676,-0.175 -2.265,-1.417 -3.148,-2.355 -3.196,-1.455 -5.175,-4.107 -7.486,-6.437 0.524,-1.529 2.459,-1.667 3.286,-2.9 1.253,0.276 2.681,0.423 3.804,0 0.616,-0.229 1.004,-0.866 1.574,-1.17 0.663,-0.359 1.51,-0.396 2.228,-0.663 0.498,-0.184 0.829,-0.607 1.308,-0.782 0.829,-0.304 1.879,-0.406 2.9,-0.792 1.851,-0.709 3.361,-1.99 5.259,-2.247 2.541,-0.322 4.051,-2.201 6.96,-2.357 2.532,-1.74 0.332,-5.994 1.437,-9.328 -0.515,-8.02 1.676,-15.146 -0.258,-22.052 -0.682,-0.451 -0.921,-1.344 -1.179,-2.237 1.253,-2.44 2.891,-4.834 6.169,-4.852 1.879,1.417 4.272,3.397 6.823,4.594 0.534,1.657 2.67,2.458 1.703,4.595 -0.479,1.068 -1.841,1.749 -2.615,2.9 -1.288,1.877 -0.921,3.986 -1.584,6.288 -0.735,0.784 -0.479,2.404 -0.79,3.813 -0.065,0.322 -0.424,0.644 -0.518,1.059 -0.451,2.035 -0.33,4.962 -0.533,6.814 -0.11,1.068 -0.589,2.338 -0.387,3.167 0.461,1.851 3.02,1.325 4.595,0.524 1.041,-1.583 3.435,-2.745 5.901,-3.83 2.574,-1.086 6.166,-3.434 3.946,-5.506 z"
   id="path47"
   inkscape:connector-curvature="0"
   style="fill:#630460;fill-rule:evenodd" />
		<path
   clip-rule="evenodd"
   d="m 252.49,378.874 c 1.327,0.405 3.241,-0.395 4.199,-1.188 0.424,0.248 0.875,-0.12 1.308,0.268 1.713,-0.774 5.497,0.313 7.237,1.454 0.534,0.35 1.464,1.455 1.565,1.832 0.239,0.857 -0.313,1.557 -0.259,2.1 0.129,1.418 0.866,2.284 0.388,3.682 -0.203,0.563 -0.939,1.272 -1.437,1.428 -2.468,0.792 -5.267,-2.357 -8.01,-0.645 -1.492,-0.294 -2.606,-1.574 -2.367,-3.148 -0.46,-1.629 -4.3,-1.805 -4.466,-3.417 -0.119,-1.15 1.162,-1.573 1.842,-2.366 z"
   id="path49"
   inkscape:connector-curvature="0"
   style="fill:#630460;fill-rule:evenodd" />
		<path
   clip-rule="evenodd"
   d="m 230.816,411.966 c 0.368,-1.667 3.665,-3.305 5.653,-4.208 0.627,-0.276 1.437,-0.405 2.1,-0.506 0.533,-0.396 1.169,-0.691 1.833,-0.93 4.843,-4.198 10.68,-7.431 16.95,-9.724 0.534,-0.193 1.196,-0.506 1.694,-0.792 0.35,-0.183 0.461,-0.524 0.792,-0.782 1.344,-0.957 3.259,-1.362 4.724,-2.108 0.708,-0.36 1.408,-0.672 2.107,-1.05 0.581,-0.313 0.995,-0.93 1.566,-1.307 0.589,-0.387 1.325,-0.535 1.85,-0.913 1.041,-0.782 1.796,-2.043 2.883,-2.753 0.719,-0.497 1.693,-0.792 2.505,-1.188 0.698,-0.359 1.473,-0.616 2.099,-0.93 1.538,0.773 3.306,1.326 4.327,2.625 0.121,1.979 -1.675,3.278 -3.02,4.466 -0.497,0.459 -0.801,1.206 -1.308,1.583 -1.216,0.93 -2.762,1.446 -4.475,1.713 -1.418,0.221 -2.78,1.169 -4.586,0.773 -1.059,1.003 -2.56,1.077 -3.683,1.86 -0.792,0.534 -1.63,1.509 -2.366,2.21 -2.274,2.21 -4.908,4.181 -7.228,6.436 -1.492,0.323 -2.505,1.98 -3.932,3.417 -1.594,1.63 -3.444,2.642 -4.337,4.871 -1.041,0.773 -1.455,0.783 -3.149,0.773 -3.306,-0.01 -6.538,0.939 -9.318,-0.902 -0.396,-0.267 -0.441,-0.764 -0.792,-1.059 -0.863,-0.728 -2.244,-0.534 -2.889,-1.575 z"
   id="path51"
   inkscape:connector-curvature="0"
   style="fill:#630460;fill-rule:evenodd" />
		<path
   clip-rule="evenodd"
   d="m 278.493,410.778 c 0.037,3.122 -3.148,4.788 -4.862,6.971 -2.21,0.626 -3.545,2.136 -4.069,4.466 1.151,1.482 2.735,-0.977 4.069,0 0.627,1.749 0.111,4.078 -0.791,5.119 -0.921,-0.102 -0.995,0.654 -1.437,1.05 -0.313,0.037 -0.516,-0.028 -0.663,-0.138 -1.105,1.609 -3.554,1.877 -4.732,3.416 -2.357,0.202 -5.488,1.141 -6.694,-0.783 -0.728,-4.227 2.385,-5.275 3.416,-8.14 1.234,-0.681 2.154,-1.704 2.505,-3.296 0.663,-0.939 2.56,-2.265 2.486,-3.941 -0.056,-1.326 -1.317,-2.007 -2.763,-1.574 -1.068,0.35 -2.624,2.301 -3.536,3.287 -1.196,1.298 -2.228,2.587 -3.02,3.674 -0.589,0.35 -1.52,0.332 -1.713,1.06 -1.123,-0.323 -2.983,0.083 -3.94,-0.387 -1.317,-1.583 0.92,-2.541 2.228,-3.563 0.516,-0.377 0.958,-0.699 1.446,-1.031 1.169,-0.856 2.173,-1.777 3.544,-2.632 0.784,-0.498 1.658,-0.867 2.367,-1.327 0.719,-0.442 1.197,-1.104 1.703,-1.427 1.611,-1.068 3.876,-1.243 4.475,-3.158 1.786,-0.728 3.609,-1.547 5.249,-0.526 1.04,0.646 1.565,1.824 2.495,2.238 0.765,0.33 1.759,-0.011 2.237,0.642 z"
   id="path53"
   inkscape:connector-curvature="0"
   style="fill:#630460;fill-rule:evenodd" />
		<path
   clip-rule="evenodd"
   d="m 241.718,423.643 c 1.289,-1.41 3.131,-3.196 6.041,-2.349 3.185,0.911 5.855,6.39 6.039,9.585 0.065,1.114 -0.349,3.186 -0.792,3.803 -0.321,0.46 -1.187,0.847 -1.831,1.308 -0.839,0.616 -1.428,1.51 -3.021,1.196 -1.243,-0.256 -5.019,-3.572 -5.387,-4.999 -0.192,-0.747 0.185,-1.418 0.129,-2.108 -0.174,-2.211 -2.025,-4.034 -1.178,-6.436 z"
   id="path55"
   inkscape:connector-curvature="0"
   style="fill:#630460;fill-rule:evenodd" />
		<path
   clip-rule="evenodd"
   d="m 396.019,448.069 c -0.635,2.753 -4.051,2.431 -6.298,3.692 -1.049,0.599 -2.1,1.768 -3.425,2.495 -1.714,0.912 -3.757,0.599 -5.377,1.565 -2.874,0.341 -4.08,-0.709 -6.041,-2.357 -2.228,-1.869 -3.591,-3.646 -5.248,-6.04 -1.206,-1.731 -2.642,-2.614 -3.02,-4.595 -3.224,-4.594 -6.52,-9.852 -7.624,-15.772 -1.068,-1.528 -0.774,-3.609 -1.584,-5.377 2.982,-0.543 2.78,3.048 4.87,3.822 0.581,1.207 1.584,1.988 2.496,2.882 0,0.175 0,0.351 0,0.516 2.247,2.099 3.683,4.981 6.04,6.979 -0.11,0.359 0.184,0.322 0.129,0.635 2.817,2.486 6.215,4.383 9.198,6.703 2.246,0.019 3.213,1.594 4.981,2.237 3.286,-0.606 5.451,1.013 8.664,1.179 0.618,0.617 1.594,0.875 2.239,1.436 z"
   id="path57"
   inkscape:connector-curvature="0"
   style="fill:#630460;fill-rule:evenodd" />
		<path
   clip-rule="evenodd"
   d="m 419.525,458.317 c -0.018,-0.671 0.581,-0.728 0.783,-1.188 0.341,-1.704 -0.12,-3.776 1.316,-4.586 0.285,-2.126 2.071,-3.407 1.979,-5.644 -0.11,-2.422 -1.547,-4.816 -1.842,-7.1 1.031,-1.427 2.818,-3.24 4.853,-2.09 0.249,0.119 0.783,0.607 1.188,0.902 1.675,1.308 3.766,4.023 4.99,5.258 0.957,3.379 0.772,6.076 0.912,9.327 -1.041,3.959 -3.877,6.537 -8.131,6.169 -2.208,1.576 -4.178,-0.439 -6.048,-1.048 z"
   id="path59"
   inkscape:connector-curvature="0"
   style="fill:#630460;fill-rule:evenodd" />
		<path
   clip-rule="evenodd"
   d="m 269.562,460.159 c -0.543,-3.472 -0.313,-7.265 -0.129,-10.646 0.037,-0.827 0.11,-1.85 0.259,-2.613 0.11,-0.645 0.552,-1.05 0.533,-1.713 -0.092,-1.952 -1.805,-3.876 -0.276,-5.764 0.11,-0.027 0.138,-0.147 0.276,-0.147 4.198,0.599 6.445,3.397 8.002,8.02 0.755,2.274 2.008,4.483 2.237,6.556 0.239,2.366 -1.087,4.061 -1.713,5.782 -1.067,0.47 -1.859,1.584 -2.762,2.229 -0.461,0.322 -1.308,0.856 -2.1,0.801 -1.62,-0.166 -2.577,-2.34 -4.327,-2.505 z"
   id="path61"
   inkscape:connector-curvature="0"
   style="fill:#630460;fill-rule:evenodd" />
		<path
   clip-rule="evenodd"
   d="m 226.746,459.238 c 0.994,-2.035 2.634,-3.066 4.733,-3.277 1.206,-0.13 2.531,0.092 3.94,-0.664 0.967,-1.076 1.989,-1.013 3.278,-1.445 1.896,-0.607 3.112,-1.602 4.327,-2.624 0.369,-0.304 0.755,-0.156 1.188,-0.387 0.782,-0.414 1.39,-1.233 2.366,-1.327 0.295,-0.127 0.479,-0.395 0.524,-0.781 1.776,-0.387 3.95,-2.164 6.17,-2.1 0.212,-0.184 0.606,-0.174 0.782,-0.396 2.891,1.078 3.977,-3.406 2.762,-5.772 0.203,-0.589 0.35,-1.261 0,-1.712 0.719,-1.547 1.363,-3.188 3.278,-3.536 0.341,0.23 0.589,0.553 1.059,0.663 3.057,3.305 2.421,8.646 2.366,14.17 -0.055,4.503 0.949,8.932 0.921,13.131 -1.482,1.132 -2.817,5.606 -4.862,5.781 -0.864,0.074 -1.178,-0.791 -1.841,-0.791 -0.939,-1.694 -1.62,-3.646 -2.366,-5.507 -2.614,-2.329 -3.646,-6.242 -6.694,-8.149 -1.344,1.373 -2.78,2.653 -3.286,4.854 -0.765,0.414 -1.124,1.252 -1.833,1.703 -1.547,3.803 -5.027,6.371 -6.832,9.466 -0.847,0.036 -1.703,1.06 -2.892,0.921 -0.58,-0.074 -0.718,-0.563 -1.178,-0.792 -1.032,-0.507 -2.375,-0.387 -3.149,-0.93 -0.948,-0.626 -1.179,-2.874 -1.308,-3.933 -0.31,-2.441 -0.136,-4.937 -1.453,-6.566 z m 25.744,-9.972 c -0.479,0.139 -0.792,1.648 -1.187,2.349 -0.442,0.819 -1.078,1.317 -1.18,1.851 -0.506,2.496 2.035,2.422 3.417,3.287 0.552,0.341 0.865,1.068 1.308,1.16 0.736,0.166 1.086,-0.193 1.712,-0.377 1.823,-3.592 1.179,-7.256 -0.138,-10.902 -2.255,-0.406 -3.269,2.421 -3.932,2.632 z"
   id="path63"
   inkscape:connector-curvature="0"
   style="fill:#630460;fill-rule:evenodd" />
	</g>
</g>
<g
   id="g65"
   transform="translate(-120.09847,-362.85652)">
</g>
</svg>