<?xml version="1.0"?>
<!DOCTYPE svg PUBLIC "-//W3C//DTD SVG 1.1//EN"
"http://www.w3.org/Graphics/SVG/1.1/DTD/svg11.dtd">
<svg xmlns="http://www.w3.org/2000/svg" xmlns:xlink="http://www.w3.org/1999/xlink" viewBox="0 0  208  246">
<g transform="translate( 191,  99)">
<defs>
  <path id="Atom-N" transform="scale(0.030,-0.030)" d="M523 0l-293 504v-504h-150v729h154l289 -496v496h150v-729h-150z" />  <path id="Atom-H" transform="scale(0.030,-0.030)" d="M519 331h-289v-331h-150v729h150v-273h288v273h151v-729h-150v331z" />
  <path id="Atom-C" transform="scale(0.030,-0.030)" d="M535 482c-8 37 -31 131 -156 131c-118 0 -189 -96 -189 -257c0 -159 68 -253 184 -253c93 0 152 53 161 146h146c-9 -167 -130 -272 -311 -272c-203 0 -330 147 -330 381c0 236 128 383 334 383c170 0 291 -95 304 -259h-143z" />
  <path id="Atom-3" transform="scale(0.0210,-0.0210)" d="M38 498c0 192 139 226 230 226c137 0 225 -75 225 -193c0 -65 -27 -110 -93 -151c80 -39 116 -93 116 -176c0 -138 -97 -227 -248 -227c-145 0 -238 89 -239 231h136c4 -73 40 -111 106 -111c61 0 105 45 105 107c0 52 -30 93 -77 106c-24 6 -33 7 -82 7v94h12c83 0 124 36 124 107c0 59 -32 93 -88 93c-79 0 -95 -49 -97 -125h-130v12z" />
  <path id="Atom-O" transform="scale(0.030,-0.030)" d="M40 359c0 222 138 382 350 382c211 0 352 -155 352 -387c0 -209 -132 -377 -351 -377c-214 0 -351 160 -351 382zM391 613c-121 0 -201 -101 -201 -254s80 -254 201 -254c120 0 201 101 201 250c0 158 -78 258 -201 258z" />
</defs>
<use xlink:href="#Atom-N" x="-72.22" y="102.11"/><use xlink:href="#Atom-H" x="-94.69" y="102.11"/>
<use xlink:href="#Atom-N" x="-111.19" y="34.61"/>
<use xlink:href="#Atom-C" x="-72.34" y="-32.37"/><use xlink:href="#Atom-H" x="-51.91" y="-32.37"/><use xlink:href="#Atom-3" x="-29.44" y="-24.68"/>
<use xlink:href="#Atom-O" x="-151.19" y="102.63"/>
<line x1="-23.15" y1="23.67" x2="-62.12" y2="1.17" style="stroke:black; stroke-width:3px;" />
<line x1="-23.15" y1="68.67" x2="-23.15" y2="23.67" style="stroke:black; stroke-width:3px;" />
<line x1="-29.00" y1="27.05" x2="-29.00" y2="65.30" style="stroke:black; stroke-width:3px;" />
<line x1="-48.00" y1="83.00" x2="-23.15" y2="68.67" style="stroke:black; stroke-width:3px;" />
<line x1="-101.09" y1="68.67" x2="-72.00" y2="85.00" style="stroke:black; stroke-width:3px;" />
<line x1="-101.00" y1="38.00" x2="-101.09" y2="68.67" style="stroke:black; stroke-width:3px;" />
<line x1="-62.12" y1="1.17" x2="-86.00" y2="15.00" style="stroke:black; stroke-width:3px;" />
<line x1="-86.00" y1="22.00" x2="-62.12" y2="7.92" style="stroke:black; stroke-width:3px;" />
<line x1="-62.00" y1="-28.00" x2="-62.12" y2="1.17" style="stroke:black; stroke-width:3px;" />
<line x1="-124.00" y1="85.00" x2="-99.97" y2="70.62" style="stroke:black; stroke-width:3px;" />
<line x1="-124.00" y1="79.00" x2="-102.22" y2="66.72" style="stroke:black; stroke-width:3px;" />
</g>
</svg>
